<svg version="1.1" id="Capa_1" xmlns="http://www.w3.org/2000/svg" xmlns:xlink="http://www.w3.org/1999/xlink" x="0px" y="0px" viewBox="0 0 512 512" style="enable-background:new 0 0 512 512;" xml:space="preserve">
<g>
	<g>
		
			<line style="fill:none;stroke:#000000;stroke-width:15;stroke-linecap:round;stroke-linejoin:round;stroke-miterlimit:10;" x1="7.5" y1="500.243" x2="504.5" y2="500.243"/>
		<path style="fill:none;stroke:#000000;stroke-width:15;stroke-linecap:round;stroke-linejoin:round;stroke-miterlimit:10;" d="&#10;&#9;&#9;&#9;M146.63,331.833c6.86-3.15,15.12-5.32,26.53-5.32c41.42,0,41.42,28.59,82.83,28.59c41.42,0,41.42-28.59,82.84-28.59&#10;&#9;&#9;&#9;c41.41,0,41.41,28.59,82.83,28.59s41.42-28.59,82.84-28.59"/>
		<path style="fill:none;stroke:#000000;stroke-width:15;stroke-linecap:round;stroke-linejoin:round;stroke-miterlimit:10;" d="&#10;&#9;&#9;&#9;M7.5,326.513c41.42,0,41.42,28.59,82.83,28.59c10.89,0,18.91-1.98,25.58-4.89"/>
		<path style="fill:none;stroke:#000000;stroke-width:15;stroke-linecap:round;stroke-linejoin:round;stroke-miterlimit:10;" d="&#10;&#9;&#9;&#9;M445.36,447.853c20.08-7.9,27.6-24.48,59.14-24.48"/>
		<path style="fill:none;stroke:#000000;stroke-width:15;stroke-linecap:round;stroke-linejoin:round;stroke-miterlimit:10;" d="&#10;&#9;&#9;&#9;M7.5,423.373c41.42,0,41.42,28.6,82.83,28.6c41.42,0,41.42-28.6,82.83-28.6c41.42,0,41.42,28.6,82.83,28.6&#10;&#9;&#9;&#9;c41.42,0,41.42-28.6,82.84-28.6c37.25,0,40.99,23.15,71.53,27.79"/>
		
			<circle style="fill:none;stroke:#000000;stroke-width:15;stroke-linecap:round;stroke-linejoin:round;stroke-miterlimit:10;" cx="256" cy="403.54" r="20"/>
		
			<circle style="fill:none;stroke:#000000;stroke-width:15;stroke-linecap:round;stroke-linejoin:round;stroke-miterlimit:10;" cx="90.331" cy="403.54" r="20"/>
		
			<circle style="fill:none;stroke:#000000;stroke-width:15;stroke-linecap:round;stroke-linejoin:round;stroke-miterlimit:10;" cx="421.663" cy="403.54" r="20"/>
		
			<circle style="fill:none;stroke:#000000;stroke-width:15;stroke-linecap:round;stroke-linejoin:round;stroke-miterlimit:10;" cx="173.163" cy="371.943" r="15"/>
		
			<circle style="fill:none;stroke:#000000;stroke-width:15;stroke-linecap:round;stroke-linejoin:round;stroke-miterlimit:10;" cx="338.826" cy="371.943" r="15"/>
		<path style="fill:none;stroke:#000000;stroke-width:15;stroke-linecap:round;stroke-linejoin:round;stroke-miterlimit:10;" d="&#10;&#9;&#9;&#9;M504.5,386.943c-8.284,0-15-6.716-15-15s6.716-15,15-15"/>
		<path style="fill:none;stroke:#000000;stroke-width:15;stroke-linecap:round;stroke-linejoin:round;stroke-miterlimit:10;" d="&#10;&#9;&#9;&#9;M7.5,386.943c8.284,0,15-6.716,15-15s-6.716-15-15-15"/>
		<g>
			
				<line style="fill:none;stroke:#000000;stroke-width:15;stroke-linecap:round;stroke-linejoin:round;stroke-miterlimit:10;" x1="90.331" y1="319.59" x2="90.331" y2="319.59"/>
			
				<line style="fill:none;stroke:#000000;stroke-width:15;stroke-linecap:round;stroke-linejoin:round;stroke-miterlimit:10;" x1="120.334" y1="289.755" x2="120.334" y2="289.755"/>
			
				<line style="fill:none;stroke:#000000;stroke-width:15;stroke-linecap:round;stroke-linejoin:round;stroke-miterlimit:10;" x1="60.328" y1="289.755" x2="60.328" y2="289.755"/>
			
				<line style="fill:none;stroke:#000000;stroke-width:15;stroke-linecap:round;stroke-linejoin:round;stroke-miterlimit:10;" x1="256" y1="319.59" x2="256" y2="319.59"/>
			
				<line style="fill:none;stroke:#000000;stroke-width:15;stroke-linecap:round;stroke-linejoin:round;stroke-miterlimit:10;" x1="286.003" y1="289.755" x2="286.003" y2="289.755"/>
			
				<line style="fill:none;stroke:#000000;stroke-width:15;stroke-linecap:round;stroke-linejoin:round;stroke-miterlimit:10;" x1="225.997" y1="289.755" x2="225.997" y2="289.755"/>
			
				<line style="fill:none;stroke:#000000;stroke-width:15;stroke-linecap:round;stroke-linejoin:round;stroke-miterlimit:10;" x1="421.663" y1="319.59" x2="421.663" y2="319.59"/>
			
				<line style="fill:none;stroke:#000000;stroke-width:15;stroke-linecap:round;stroke-linejoin:round;stroke-miterlimit:10;" x1="451.666" y1="289.755" x2="451.666" y2="289.755"/>
			
				<line style="fill:none;stroke:#000000;stroke-width:15;stroke-linecap:round;stroke-linejoin:round;stroke-miterlimit:10;" x1="391.66" y1="289.755" x2="391.66" y2="289.755"/>
			
				<line style="fill:none;stroke:#000000;stroke-width:15;stroke-linecap:round;stroke-linejoin:round;stroke-miterlimit:10;" x1="338.83" y1="297.151" x2="338.83" y2="297.151"/>
			
				<line style="fill:none;stroke:#000000;stroke-width:15;stroke-linecap:round;stroke-linejoin:round;stroke-miterlimit:10;" x1="173.163" y1="297.151" x2="173.163" y2="297.151"/>
			
				<line style="fill:none;stroke:#000000;stroke-width:15;stroke-linecap:round;stroke-linejoin:round;stroke-miterlimit:10;" x1="421.663" y1="259.92" x2="421.663" y2="259.92"/>
			
				<line style="fill:none;stroke:#000000;stroke-width:15;stroke-linecap:round;stroke-linejoin:round;stroke-miterlimit:10;" x1="481.669" y1="259.92" x2="481.669" y2="259.92"/>
			
				<line style="fill:none;stroke:#000000;stroke-width:15;stroke-linecap:round;stroke-linejoin:round;stroke-miterlimit:10;" x1="30.331" y1="259.92" x2="30.331" y2="259.92"/>
			
				<line style="fill:none;stroke:#000000;stroke-width:15;stroke-linecap:round;stroke-linejoin:round;stroke-miterlimit:10;" x1="90.331" y1="259.92" x2="90.331" y2="259.92"/>
		</g>
	</g>
	<path style="fill:none;stroke:#000000;stroke-width:15;stroke-linecap:round;stroke-linejoin:round;stroke-miterlimit:10;" d="&#10;&#9;&#9;M353.83,239.963l3.76-3.58c5.07-4.82,12.76-5.57,18.66-1.83l2.68,1.71c7.05,4.47,16.39,2.43,20.93-4.57l10.98-16.91&#10;&#9;&#9;c4.54-7.01,13.88-9.04,20.93-4.57c2.53,1.6,5.35,2.37,8.14,2.37c4.99,0,9.87-2.45,12.79-6.94l11.8-18.19&#10;&#9;&#9;c4.2-6.48,12.6-8.78,19.52-5.35l20.48,10.13"/>
	<path style="fill:none;stroke:#000000;stroke-width:15;stroke-linecap:round;stroke-linejoin:round;stroke-miterlimit:10;" d="&#10;&#9;&#9;M7.5,192.233l20.48-10.13c6.92-3.43,15.32-1.13,19.52,5.35l11.8,18.19c4.55,7,13.88,9.04,20.93,4.57c2.53-1.6,5.36-2.37,8.15-2.37&#10;&#9;&#9;c4.99,0,9.87,2.45,12.78,6.94l10.98,16.91c4.54,7,13.88,9.04,20.93,4.57l2.68-1.71c5.9-3.74,13.59-2.99,18.66,1.83l14.35,13.66&#10;&#9;&#9;c2.84,2.69,6.59,4.2,10.5,4.2h139.57"/>
	<g>
		
			<circle style="fill:none;stroke:#000000;stroke-width:15;stroke-linecap:round;stroke-linejoin:round;stroke-miterlimit:10;" cx="425.671" cy="64.031" r="15.992"/>
		
			<circle style="fill:none;stroke:#000000;stroke-width:15;stroke-linecap:round;stroke-linejoin:round;stroke-miterlimit:10;" cx="484.5" cy="98.458" r="15.992"/>
		
			<line style="fill:none;stroke:#000000;stroke-width:15;stroke-linecap:round;stroke-linejoin:round;stroke-miterlimit:10;" x1="484.5" y1="48.039" x2="484.5" y2="48.039"/>
		
			<line style="fill:none;stroke:#000000;stroke-width:15;stroke-linecap:round;stroke-linejoin:round;stroke-miterlimit:10;" x1="451.738" y1="23.841" x2="451.738" y2="23.841"/>
		
			<line style="fill:none;stroke:#000000;stroke-width:15;stroke-linecap:round;stroke-linejoin:round;stroke-miterlimit:10;" x1="482.771" y1="11.757" x2="482.771" y2="11.757"/>
		
			<line style="fill:none;stroke:#000000;stroke-width:15;stroke-linecap:round;stroke-linejoin:round;stroke-miterlimit:10;" x1="466.907" y1="147.396" x2="466.907" y2="147.396"/>
		
			<line style="fill:none;stroke:#000000;stroke-width:15;stroke-linecap:round;stroke-linejoin:round;stroke-miterlimit:10;" x1="438.006" y1="110.073" x2="438.006" y2="110.073"/>
	</g>
	<g>
		
			<circle style="fill:none;stroke:#000000;stroke-width:15;stroke-linecap:round;stroke-linejoin:round;stroke-miterlimit:10;" cx="86.329" cy="64.031" r="15.992"/>
		
			<circle style="fill:none;stroke:#000000;stroke-width:15;stroke-linecap:round;stroke-linejoin:round;stroke-miterlimit:10;" cx="27.5" cy="98.458" r="15.992"/>
		
			<line style="fill:none;stroke:#000000;stroke-width:15;stroke-linecap:round;stroke-linejoin:round;stroke-miterlimit:10;" x1="27.5" y1="48.039" x2="27.5" y2="48.039"/>
		
			<line style="fill:none;stroke:#000000;stroke-width:15;stroke-linecap:round;stroke-linejoin:round;stroke-miterlimit:10;" x1="60.262" y1="23.841" x2="60.262" y2="23.841"/>
		
			<line style="fill:none;stroke:#000000;stroke-width:15;stroke-linecap:round;stroke-linejoin:round;stroke-miterlimit:10;" x1="29.229" y1="11.757" x2="29.229" y2="11.757"/>
		
			<line style="fill:none;stroke:#000000;stroke-width:15;stroke-linecap:round;stroke-linejoin:round;stroke-miterlimit:10;" x1="45.093" y1="147.396" x2="45.093" y2="147.396"/>
		
			<line style="fill:none;stroke:#000000;stroke-width:15;stroke-linecap:round;stroke-linejoin:round;stroke-miterlimit:10;" x1="73.994" y1="110.073" x2="73.994" y2="110.073"/>
	</g>
	
		<polyline style="fill:none;stroke:#000000;stroke-width:15;stroke-linecap:round;stroke-linejoin:round;stroke-miterlimit:10;" points="&#10;&#9;&#9;387.143,136.684 425.671,136.684 425.671,175.212 &#9;"/>
	<path style="fill:none;stroke:#000000;stroke-width:15;stroke-linecap:round;stroke-linejoin:round;stroke-miterlimit:10;" d="&#10;&#9;&#9;M177.57,201.633c7.85,2.93,15.88,5.3,24.03,7.09c12.64,2.78,25.58,4.2,38.61,4.2h31.58c26.05,0,51.78-5.67,75.41-16.6&#10;&#9;&#9;c8.05-3.72,15.8-8.04,23.19-12.89c7.39-4.85,14.43-10.25,21.04-16.16l34.24-30.59"/>
	<path style="fill:none;stroke:#000000;stroke-width:15;stroke-linecap:round;stroke-linejoin:round;stroke-miterlimit:10;" d="&#10;&#9;&#9;M86.33,136.683l34.24,30.59c7.92,7.07,16.43,13.41,25.44,18.95"/>
	
		<polyline style="fill:none;stroke:#000000;stroke-width:15;stroke-linecap:round;stroke-linejoin:round;stroke-miterlimit:10;" points="&#10;&#9;&#9;124.857,136.684 86.329,136.684 86.329,175.212 &#9;"/>
</g>
<g>
</g>
<g>
</g>
<g>
</g>
<g>
</g>
<g>
</g>
<g>
</g>
<g>
</g>
<g>
</g>
<g>
</g>
<g>
</g>
<g>
</g>
<g>
</g>
<g>
</g>
<g>
</g>
<g>
</g>
</svg>