<svg version="1.1" id="Capa_1" xmlns="http://www.w3.org/2000/svg" xmlns:xlink="http://www.w3.org/1999/xlink" x="0px" y="0px" viewBox="0 0 512 512" style="enable-background:new 0 0 512 512;" xml:space="preserve">
<g>
	<g>
		<path style="fill:none;stroke:#000000;stroke-width:15;stroke-linecap:round;stroke-linejoin:round;stroke-miterlimit:10;" d="&#10;&#9;&#9;&#9;M178.98,37.67C199.21,18.94,226.26,7.5,256,7.5c62.63,0,113.4,50.77,113.4,113.4c0,46.98-28.56,87.28-69.26,104.5"/>
		<path style="fill:none;stroke:#000000;stroke-width:15;stroke-linecap:round;stroke-linejoin:round;stroke-miterlimit:10;" d="&#10;&#9;&#9;&#9;M157.25,65.11c-9.33,16.47-14.65,35.51-14.65,55.79c0,47.07,28.67,87.45,69.51,104.6"/>
		
			<line style="fill:none;stroke:#000000;stroke-width:15;stroke-linecap:round;stroke-linejoin:round;stroke-miterlimit:10;" x1="7.5" y1="504.5" x2="504.5" y2="504.5"/>
		<path style="fill:none;stroke:#000000;stroke-width:15;stroke-linecap:round;stroke-linejoin:round;stroke-miterlimit:10;" d="&#10;&#9;&#9;&#9;M114.9,354.9c19.43-8.03,27.19-24.13,58.26-24.13c41.42,0,41.42,28.59,82.83,28.59c41.42,0,41.42-28.59,82.84-28.59&#10;&#9;&#9;&#9;c41.41,0,41.41,28.59,82.83,28.59s41.42-28.59,82.84-28.59"/>
		<path style="fill:none;stroke:#000000;stroke-width:15;stroke-linecap:round;stroke-linejoin:round;stroke-miterlimit:10;" d="&#10;&#9;&#9;&#9;M7.5,330.77c37.62,0,41.07,23.58,72.4,27.91"/>
		<path style="fill:none;stroke:#000000;stroke-width:15;stroke-linecap:round;stroke-linejoin:round;stroke-miterlimit:10;" d="&#10;&#9;&#9;&#9;M7.5,427.633c41.415,0,41.415,28.597,82.831,28.597c41.416,0,41.416-28.597,82.832-28.597c41.415,0,41.415,28.597,82.831,28.597&#10;&#9;&#9;&#9;c41.417,0,41.417-28.597,82.833-28.597c41.418,0,41.418,28.597,82.837,28.597s41.418-28.597,82.837-28.597"/>
		
			<circle style="fill:none;stroke:#000000;stroke-width:15;stroke-linecap:round;stroke-linejoin:round;stroke-miterlimit:10;" cx="256" cy="407.797" r="20"/>
		
			<circle style="fill:none;stroke:#000000;stroke-width:15;stroke-linecap:round;stroke-linejoin:round;stroke-miterlimit:10;" cx="90.331" cy="407.797" r="20"/>
		
			<circle style="fill:none;stroke:#000000;stroke-width:15;stroke-linecap:round;stroke-linejoin:round;stroke-miterlimit:10;" cx="421.663" cy="407.797" r="20"/>
		
			<circle style="fill:none;stroke:#000000;stroke-width:15;stroke-linecap:round;stroke-linejoin:round;stroke-miterlimit:10;" cx="173.163" cy="376.201" r="15"/>
		
			<circle style="fill:none;stroke:#000000;stroke-width:15;stroke-linecap:round;stroke-linejoin:round;stroke-miterlimit:10;" cx="338.826" cy="376.201" r="15"/>
		<path style="fill:none;stroke:#000000;stroke-width:15;stroke-linecap:round;stroke-linejoin:round;stroke-miterlimit:10;" d="&#10;&#9;&#9;&#9;M504.5,391.201c-8.284,0-15-6.716-15-15s6.716-15,15-15"/>
		<path style="fill:none;stroke:#000000;stroke-width:15;stroke-linecap:round;stroke-linejoin:round;stroke-miterlimit:10;" d="&#10;&#9;&#9;&#9;M7.5,391.201c8.284,0,15-6.716,15-15s-6.716-15-15-15"/>
		<g>
			<g>
				
					<line style="fill:none;stroke:#000000;stroke-width:15;stroke-linecap:round;stroke-linejoin:round;stroke-miterlimit:10;" x1="90.331" y1="323.848" x2="90.331" y2="323.848"/>
				
					<line style="fill:none;stroke:#000000;stroke-width:15;stroke-linecap:round;stroke-linejoin:round;stroke-miterlimit:10;" x1="120.334" y1="294.013" x2="120.334" y2="294.013"/>
				
					<line style="fill:none;stroke:#000000;stroke-width:15;stroke-linecap:round;stroke-linejoin:round;stroke-miterlimit:10;" x1="60.328" y1="294.013" x2="60.328" y2="294.013"/>
			</g>
			<g>
				
					<line style="fill:none;stroke:#000000;stroke-width:15;stroke-linecap:round;stroke-linejoin:round;stroke-miterlimit:10;" x1="421.663" y1="323.848" x2="421.663" y2="323.848"/>
				
					<line style="fill:none;stroke:#000000;stroke-width:15;stroke-linecap:round;stroke-linejoin:round;stroke-miterlimit:10;" x1="451.666" y1="294.013" x2="451.666" y2="294.013"/>
				
					<line style="fill:none;stroke:#000000;stroke-width:15;stroke-linecap:round;stroke-linejoin:round;stroke-miterlimit:10;" x1="391.66" y1="294.013" x2="391.66" y2="294.013"/>
			</g>
		</g>
		
			<line style="fill:none;stroke:#000000;stroke-width:15;stroke-linecap:round;stroke-linejoin:round;stroke-miterlimit:10;" x1="338.83" y1="301.409" x2="338.83" y2="301.409"/>
		
			<line style="fill:none;stroke:#000000;stroke-width:15;stroke-linecap:round;stroke-linejoin:round;stroke-miterlimit:10;" x1="173.163" y1="301.409" x2="173.163" y2="301.409"/>
		
			<line style="fill:none;stroke:#000000;stroke-width:15;stroke-linecap:round;stroke-linejoin:round;stroke-miterlimit:10;" x1="504.5" y1="258.5" x2="396.26" y2="258.5"/>
		<path style="fill:none;stroke:#000000;stroke-width:15;stroke-linecap:round;stroke-linejoin:round;stroke-miterlimit:10;" d="&#10;&#9;&#9;&#9;M7.5,258.5h174.47c7.65,0,14.64-4.36,17.98-11.24c3.75-7.75,8.5-16.08,14.28-25.11c9.16-14.3,24.77-22.84,41.77-22.84&#10;&#9;&#9;&#9;s32.61,8.54,41.77,22.84c5.72,8.92,10.42,17.25,14.16,24.99c3.35,6.93,10.33,11.36,18.03,11.36h31.3"/>
		<path style="fill:none;stroke:#000000;stroke-width:15;stroke-linecap:round;stroke-linejoin:round;stroke-miterlimit:10;" d="&#10;&#9;&#9;&#9;M224.18,283.94c1.63-12.72,11.28-30.03,19.52-42.91c5.74-8.96,18.86-8.96,24.6,0c9.04,14.12,19.76,33.57,19.76,46.46&#10;&#9;&#9;&#9;c0,17.71-14.35,32.06-32.06,32.06c-5.77,0-11.19-1.52-15.86-4.2"/>
		
			<circle style="fill:none;stroke:#000000;stroke-width:15;stroke-linecap:round;stroke-linejoin:round;stroke-miterlimit:10;" cx="229.501" cy="155.3" r="19.812"/>
		
			<circle style="fill:none;stroke:#000000;stroke-width:15;stroke-linecap:round;stroke-linejoin:round;stroke-miterlimit:10;" cx="283.064" cy="63.416" r="15"/>
		
			<circle style="fill:none;stroke:#000000;stroke-width:15;stroke-linecap:round;stroke-linejoin:round;stroke-miterlimit:10;" cx="309.201" cy="139.705" r="21.985"/>
		
			<circle style="fill:none;stroke:#000000;stroke-width:15;stroke-linecap:round;stroke-linejoin:round;stroke-miterlimit:10;" cx="204.441" cy="89.017" r="17.8"/>
		
			<line style="fill:none;stroke:#000000;stroke-width:15;stroke-linecap:round;stroke-linejoin:round;stroke-miterlimit:10;" x1="233.627" y1="45.747" x2="233.627" y2="45.747"/>
		
			<line style="fill:none;stroke:#000000;stroke-width:15;stroke-linecap:round;stroke-linejoin:round;stroke-miterlimit:10;" x1="260.645" y1="110.609" x2="260.645" y2="110.609"/>
		
			<line style="fill:none;stroke:#000000;stroke-width:15;stroke-linecap:round;stroke-linejoin:round;stroke-miterlimit:10;" x1="313.441" y1="94.167" x2="313.441" y2="94.167"/>
		
			<line style="fill:none;stroke:#000000;stroke-width:15;stroke-linecap:round;stroke-linejoin:round;stroke-miterlimit:10;" x1="274.212" y1="174.627" x2="274.212" y2="174.627"/>
		
			<line style="fill:none;stroke:#000000;stroke-width:15;stroke-linecap:round;stroke-linejoin:round;stroke-miterlimit:10;" x1="180.151" y1="142.181" x2="180.151" y2="142.181"/>
	</g>
	<g>
		
			<line style="fill:none;stroke:#000000;stroke-width:15;stroke-linecap:round;stroke-linejoin:round;stroke-miterlimit:10;" x1="369.404" y1="229.545" x2="412.753" y2="211.045"/>
		
			<line style="fill:none;stroke:#000000;stroke-width:15;stroke-linecap:round;stroke-linejoin:round;stroke-miterlimit:10;" x1="369.404" y1="201.334" x2="381.884" y2="191.544"/>
	</g>
	<g>
		
			<line style="fill:none;stroke:#000000;stroke-width:15;stroke-linecap:round;stroke-linejoin:round;stroke-miterlimit:10;" x1="142.596" y1="229.545" x2="99.247" y2="211.045"/>
		
			<line style="fill:none;stroke:#000000;stroke-width:15;stroke-linecap:round;stroke-linejoin:round;stroke-miterlimit:10;" x1="142.596" y1="201.334" x2="130.116" y2="191.544"/>
	</g>
</g>
<g>
</g>
<g>
</g>
<g>
</g>
<g>
</g>
<g>
</g>
<g>
</g>
<g>
</g>
<g>
</g>
<g>
</g>
<g>
</g>
<g>
</g>
<g>
</g>
<g>
</g>
<g>
</g>
<g>
</g>
</svg>