<svg xmlns="http://www.w3.org/2000/svg" xmlns:xlink="http://www.w3.org/1999/xlink" x="0px" y="0px"
	 viewBox="0 0 789.01 125.01" style="enable-background:new 0 0 789.01 125.01;" xml:space="preserve">
<style type="text/css">
	.st0{fill:#956855;}
	.st1{fill:#A17A3B;}
	.st2{fill:#527093;}
	.st3{fill:#875B6C;}
	.st4{fill:#A67A8F;}
	.st5{fill:#727272;}
	.st6{fill:#737374;}
	.st7{fill:#A67B8F;}
	.st8{fill:#747474;}
	.st9{fill:#C28273;}
	.st10{fill:#A2793A;}
	.st11{fill:#875C6D;}
	.st12{fill:#587DA1;}
	.st13{fill:#875C6C;}
	.st14{fill:#D39654;}
	.st15{fill:#527094;}
	.st16{fill:#D49451;}
	.st17{fill:#6490B4;}
	.st18{fill:#A67A8E;}
	.st19{fill:#C28072;}
	.st20{fill:#A27A3C;}
	.st21{fill:#6692B5;}
	.st22{fill:#618EB1;}
	.st23{fill:#8A5F70;}
	.st24{fill:#628FB2;}
	.st25{fill:#5F89AD;}
	.st26{fill:#A47B3F;}
	.st27{fill:#A4778C;}
	.st28{fill:#9E7286;}
	.st29{fill:#A4788C;}
	.st30{fill:#557598;}
	.st31{fill:#537195;}
	.st32{fill:#608BAF;}
	.st33{fill:#A57B8E;}
	.st34{fill:#6088AC;}
	.st35{fill:#A47B3D;}
	.st36{fill:#D09350;}
	.st37{fill:#C88E4C;}
	.st38{fill:#5E84A8;}
	.st39{fill:#5F89AC;}
	.st40{fill:#986D7F;}
	.st41{fill:#C38C49;}
	.st42{fill:#8E6273;}
	.st43{fill:#9C6C59;}
	.st44{fill:#B17766;}
	.st45{fill:#D09451;}
	.st46{fill:#5E86A9;}
	.st47{fill:#597DA0;}
	.st48{fill:#5E85A8;}
	.st49{fill:#5B80A3;}
	.st50{fill:#8E6274;}
	.st51{fill:#FFFFFF;}
	.st52{fill:#FDFDFE;}
	.st53{fill:#A6798D;}
	.st54{fill:#895D6E;}
	.st55{fill:#557498;}
	.st56{fill:#55769A;}
	.st57{fill:#597EA1;}
	.st58{fill:#56769A;}
	.st59{fill:#A57F45;}
	.st60{fill:#A67F44;}
	.st61{fill:#547498;}
	.st62{fill:#996A57;}
	.st63{fill:#A57160;}
	.st64{fill:#8C6071;}
</style>
<g>
	<path class="st0" d="M125.19,64.89c0.05,18.8,0.08,37.6,0.18,56.41c0.01,2.29-0.23,3.77-3.15,3.69
		c-8.64-0.23-17.29-0.24-25.94-0.34c-0.94-1.36-0.49-2.9-0.5-4.35c-0.03-16.6,0.04-33.19-0.07-49.79c-0.02-3.27,0.1-5.7,4.44-4.64
		c2.44,0.6,4.11-0.71,5.34-2.73c1.58-2.6,3.57-4.79,6.48-5.94c0.78-0.65,3.01-0.09,1.88-2.3c-2.11-0.89-4.33-0.26-6.44-0.61
		c-1.66-0.28-2.94-1.15-2.38-3.02c0.5-1.64,1.79-1.67,3.22-0.93c1.5,0.78,3.14,0.64,3.91,0.61c-4.03-1.38-8.88-0.9-13.74,0.18
		c-1.87,0.41-2.7-0.51-2.67-2.48c0.28-16.26-0.49-32.52,0.42-48.78c9.04-1.51,18.15-0.32,27.22-0.6c2.25-0.07,1.97,1.81,1.96,3.26
		c-0.04,9.46-0.1,18.91-0.16,28.37c-3.1-0.28-6.19-0.99-6.62,3.85c-0.48,5.4,1.52,8.9,6.6,10.17c0,0.66,0,1.32,0,1.98
		c-0.89,1.98-2.35,3.55-3.68,5.23c-2.76,3.48-2.25,7.33-1.14,11.29C121.25,66.67,124.03,62.93,125.19,64.89z"/>
	<path class="st1" d="M93.21,26.93c-0.01,22.31-0.01,44.61-0.02,66.92c-0.22,0.24-0.46,0.46-0.74,0.63
		c-1.68,0.99-4.72,0.58-4.56,3.5c0.19,3.4,3.54,1.91,5.34,2.88c-0.01,2.66-0.02,5.33-0.03,7.99c-1.43,3.02-3.91,5.14-6.3,7.35
		c-0.38,0.31-0.79,0.58-1.22,0.82c-3.63,2.02-7.62,2.95-11.59,3.97c-3.41-0.03-6.97,1.26-10.1-1.18c-0.5-9.76-0.05-19.53-0.25-29.29
		c-0.06-2.73,1.11-4.39,3.56-5.28c2.78-1.02,4.35-3.11,4.27-5.99c-0.09-3.12-1.99-5.11-4.99-6c-1.44-0.43-2.93-0.85-2.82-2.85
		c0.02-14.68,0.01-29.34,0-44c-0.04-2.17,1.36-3.31,3.12-4.06c6.74-2.88,13.44-3.94,19.92,0.73C88.83,24.53,91.11,25.59,93.21,26.93
		z"/>
	<path class="st2" d="M61.35,25.91c0.3,12.66,0.44,25.32-0.08,37.97c-1.77,2.38-2.79,0.58-3.69-0.77c-1.18-1.76-2.52-3-4.81-2.98
		c-2.25,0.02-4.33,0.15-5.29,2.71c-0.91,2.44,0.07,4.12,1.89,5.64c1.28,1.07,3.65,1.44,2.79,4.02c-0.24,0.4-0.54,0.75-0.9,1.05
		c-2.68,1.63-5.65,3.08-4.15,7.13c2.17,3.97,4.92,3.68,7.99,1.09c0.33-0.34,0.67-0.64,1.03-0.93c3.06-2.72,3.95,0.04,5.13,2.04
		c0.09,13.04,0.16,26.08,0.3,39.13c0.02,2.07-0.7,3.04-2.86,2.93c-3.13-0.15-6.27-0.16-9.4-0.23c-0.91-3.2,1.71-5.17,2.73-7.69
		c1.17-2.92,2.21-5.89,3.56-8.74c1.97-3.67,2.92-7.62,3.17-11.75c1-3.26,1.29-6.57,0.84-9.94c-0.14-0.66-1.06,0.23-0.45-0.05
		c0.26-0.12,0.4-0.04,0.44,0.23c0.56,3.43-0.1,6.76-0.86,10.08c-0.06,3.51-1.32,6.71-2.54,10.37c-2.75-1.2-3.1-3.38-3.29-5.66
		c-1.15-6.73-7.34-12.18-15.1-13.28c-1.91-0.27-3.99,0.13-5.59-1.41c-0.41-19.99-0.41-39.97,0-59.96c1.17-2.04,3.21-3.36,4.43-5.37
		c1.38-2.27,2.49-4.4-1.74-4.49c-1.02-0.02-1.95-0.38-2.69-1.13c0-1.01-0.01-2.01-0.01-3.02c0.52-0.47,1.13-0.65,1.82-0.64
		c10.16,0.21,12.82-1.78,15.74-11.78c0.12-0.48,0.42-0.81,0.88-0.99c1.85-0.22,3.88,0.17,3.26,2.38c-1.51,5.41,2.07,6.13,5.74,7.01
		c0.66,0.16,1.17,0.59,1.7,0.99c0,0.69-0.01,1.38-0.01,2.07c-3.04,2.39-6.24,0.46-9.65,0.1C52.94,18.33,57.09,22.16,61.35,25.91z"/>
	<path class="st3" d="M29.18,124.64c-0.64,0.05-1.28,0.1-1.92,0.15c-1.98-0.91-2.77-2.78-3.66-4.56c-0.96-1.95-1.98-3.87-3.62-5.33
		c-1.33-1.19-2.67-3.06-4.6-2.4c-1.62,0.55-0.96,2.66-1.09,4.06c-0.29,3.05-3.15,5.08-3.08,8.21c-1.64,0-3.29,0-4.93,0.01
		c-1.85-2.12-3.82-4.11-5.98-5.92c0-1.65,0-3.3,0-4.96c2.31-0.63,3.52,1.39,5.19,2.24c2.49,1.27,3.8,0.46,4.13-2.09
		c0.56-4.43-0.97-8.06-4.59-10.72c-1.58-1.16-3.5-1.84-4.75-3.45c-0.02-0.67-0.03-1.34-0.05-2c4.76-1.3,4.93-5.02,4.71-8.93
		c-0.23-3.96-2.3-7.08-4.7-10.03c0.03-9.33,0.05-18.65,0.08-27.98c1.42-1.3,3.22-1.34,5.07-1.51c-1.75-0.28-3.61,1.17-5.13-0.5
		c0.02-2.99,0.04-5.99,0.06-8.98c8.76-6.33,18.13-6.39,27.87-2.72c2.43,4.23,2.23,9.02-0.57,12.43c-0.55,0.68-0.79,1.4-0.82,2.23
		c0.12,1.88,1.95,2.66,2.68,4.15c0.61,12.75,0.06,25.5,0.31,38.25c0.05,2.58-1.1,3.68-3.43,3.84c-3.34,0.23-6.49,1.21-9.66,2.18
		c-2.46,0.75-3.6,1.98-2.84,4.55c-0.06,0.41-0.04,0.82,0.09,1.21c1.56,1.32,3.66,1.26,5.41,2.07c4,1.51,6.59,4.98,9.56,7.67
		C30.96,117.64,30.04,121.61,29.18,124.64z"/>
	<path class="st4" d="M482.13,62.88c-4,0-8.01,0.19-11.99-0.04c-7.3-0.42-11.55-4.83-12.02-12.12
		c-0.87-13.55-0.87-13.55,12.77-13.55c3.66,0,7.34-0.15,10.99,0.05c3.07,0.17,4.43-0.59,4.48-4.06c0.06-3.72-1.41-4.43-4.7-4.33
		c-6.66,0.21-13.33-0.11-19.99,0.13c-3.5,0.12-3.72-1.69-3.62-4.33c0.09-2.39-0.31-4.61,3.4-4.55c11.16,0.17,22.32,0.1,33.48,0.03
		c2.3-0.01,3.3,0.74,3.26,3.16c-0.11,6.49-0.14,12.99,0.01,19.48c0.07,2.87-1.39,3.23-3.71,3.2c-6.66-0.08-13.33-0.09-19.99,0.02
		c-1.74,0.03-4.32-1.05-4.48,2.28c-0.14,3.01,0.79,5.3,4.12,5.8c6.46,0.97,12.98,0.61,19.46,0.44c2.92-0.08,4.67-0.11,4.68,3.66
		c0,3.54-0.67,5.24-4.65,4.88c-3.8-0.35-7.66-0.07-11.49-0.07C482.13,62.93,482.13,62.9,482.13,62.88z"/>
	<path class="st5" d="M578.75,34.92c6.4,10.27,6,18.92-0.75,24.81c-6.49,5.67-18.15,5.79-25.02,0.26
		c-6.98-5.61-7.49-13.56-1.56-24.63c-1.18-0.85-2.59-0.57-3.78-0.38c-4.7,0.78-5.71-1.45-5.33-5.61c0.22-2.37,1.04-3.26,3.33-3.15
		c1.99,0.09,4-0.08,5.99,0.04c4.68,0.28,9.31,0.71,7.91-6.5c-0.38-1.95,1.12-2.51,2.86-2.47c1.66,0.04,3.34,0.14,4.99-0.03
		c2.99-0.31,4.47,0.79,3.95,3.9c-0.72,4.3,1.23,5.61,5.27,5.13c2.3-0.27,4.67,0.15,6.98-0.09c3.64-0.38,4.45,1.25,4.46,4.6
		c0.01,3.27-0.96,4.61-4.27,4.17C582.31,34.76,580.8,34.92,578.75,34.92z"/>
	<path class="st4" d="M327.13,54.14c-10.98,0.05-18.93-7.57-18.99-18.19c-0.06-10.81,8.09-19.02,18.88-19.02
		c10.33,0,18.67,8.24,18.9,18.67C346.15,45.95,337.9,54.1,327.13,54.14z"/>
	<path class="st5" d="M740.42,55.07c-10.73,0-18.94-7.91-19.03-18.36c-0.09-10.46,8.5-18.94,19.14-18.89
		c10.48,0.04,18.61,8.21,18.65,18.75C759.23,47.07,751.12,55.07,740.42,55.07z"/>
	<path class="st5" d="M654.1,55c-10.77,0.04-18.94-7.82-19.03-18.29c-0.08-10.75,8.12-18.97,18.92-18.96
		c10.37,0.01,18.77,8.29,18.89,18.61C673,46.66,664.64,54.96,654.1,55z"/>
	<path class="st4" d="M409.7,65.09c10.15,0,20.3,0.15,30.45-0.08c3.74-0.09,4.3,1.47,4.37,4.7c0.08,3.47-1.3,4.22-4.4,4.14
		c-6.48-0.17-12.99,0.2-19.46-0.14c-4.23-0.22-6.13,0.77-5.62,5.4c0.42,3.78-0.07,7.65,0.13,11.46c0.16,3.04-0.99,4.31-4.01,4.05
		c-1.49-0.13-3-0.09-4.49-0.01c-2.54,0.14-3.59-0.94-3.5-3.53c0.13-4.15-0.25-8.34,0.11-12.46c0.37-4.15-1.33-5.04-5.1-4.9
		c-6.81,0.26-13.65-0.07-20.46,0.14c-3.29,0.1-3.86-1.36-3.82-4.18c0.04-2.78,0.09-4.73,3.87-4.66
		C388.4,65.23,399.06,65.09,409.7,65.09z"/>
	<path class="st4" d="M327.26,63.91c10.31,0,20.62,0.12,30.93-0.07c3.37-0.06,4.23,1.13,4.18,4.31c-0.04,3.06-0.72,4.6-4.15,4.49
		c-6.15-0.19-12.31,0.11-18.45-0.11c-3.37-0.12-4.87,0.8-4.59,4.41c0.28,3.47-0.06,6.98,0.1,10.46c0.12,2.6-0.86,3.72-3.46,3.42
		c-0.66-0.07-1.33-0.01-1.99-0.01c-6.51,0.02-6.51,0.02-6.51-6.32c-0.01-11.92-0.01-11.92-11.92-11.92
		c-5.32,0-10.65-0.13-15.96,0.05c-3.1,0.1-4.1-1.12-4-4.1c0.09-2.75,0.13-4.77,3.9-4.7C305.97,64.04,316.61,63.91,327.26,63.91z"/>
	<path class="st4" d="M244.53,78.06c-10.32,0-20.63-0.12-30.95,0.07c-3.23,0.06-4.35-0.84-4.35-4.18c0-3.27,1-4.4,4.29-4.23
		c4.65,0.24,9.32-0.08,13.97,0.11c3.01,0.13,4.17-0.86,4.04-3.96c-0.2-4.98,0.08-9.98-0.1-14.96c-0.1-2.91,0.67-4.43,3.87-4.07
		c1.64,0.18,3.33,0.13,4.99,0.02c2.45-0.17,3.16,1,3.12,3.28c-0.1,5.15,0.15,10.32-0.09,15.46c-0.15,3.27,0.94,4.32,4.23,4.25
		c9.48-0.19,18.97,0.05,28.45-0.13c3.24-0.06,4.31,0.91,4.31,4.21c0,3.31-1.1,4.25-4.33,4.2C265.5,77.95,255.01,78.06,244.53,78.06z
		"/>
	<path class="st5" d="M789.05,44.28c0,7.64-0.17,15.28,0.08,22.91c0.12,3.58-1.17,4.83-4.57,4.41c-1.15-0.14-2.33-0.13-3.48,0
		c-3.03,0.32-4.07-0.92-3.99-3.98c0.18-7.47-0.2-14.96,0.16-22.41c0.21-4.29-1.28-5.52-5.33-5.15c-2.52,0.23-5.75,1.27-5.71-3.65
		c0.03-3.77,1.11-5.27,4.8-4.6c5.04,0.92,7.1-1.08,6.14-6.13c-0.03-0.16,0-0.33,0-0.5c0-8.37,0-8.24,8.28-8.06
		c2.83,0.06,3.74,0.93,3.68,3.74C788.94,28.66,789.05,36.47,789.05,44.28z"/>
	<path class="st4" d="M241.38,17.74c4.82,0,9.64-0.12,14.46,0.03c7.62,0.24,12.7,4.67,13.12,12.26c0.46,8.28,0.11,16.6,0.2,24.9
		c0.02,2.15-0.86,3.03-2.96,2.9c-1.32-0.08-2.68-0.17-3.98,0.02c-3.9,0.56-5.25-0.91-5.03-4.92c0.33-6.13,0.18-12.29,0.03-18.43
		c-0.15-6.05-2.59-8.41-8.61-8.48c-7.14-0.09-14.29-0.16-21.43,0.04c-3.33,0.09-4.75-0.76-4.77-4.39c-0.02-3.57,1.55-4.1,4.53-4
		c4.81,0.17,9.64,0.05,14.45,0.05C241.38,17.73,241.38,17.74,241.38,17.74z"/>
	<path class="st4" d="M413.25,56.13c-4.99,0-9.99,0.13-14.98-0.03c-8.11-0.27-12.2-3.8-13.42-11.92
		c-1.12-7.43-0.22-14.95-0.45-22.42c-0.06-1.81,0.65-2.56,2.57-2.81c8.58-1.11,9.33-0.52,9.34,8.05c0,4.16-0.15,8.33,0.07,12.47
		c0.31,6.05,2.73,8.29,8.82,8.34c7.99,0.07,15.98,0.13,23.97-0.04c3-0.06,4.14,0.81,4.04,3.93c-0.08,2.88-0.33,4.73-3.99,4.54
		c-5.31-0.27-10.65-0.07-15.98-0.07C413.25,56.17,413.25,56.15,413.25,56.13z"/>
	<path class="st5" d="M596.9,41.7c0-6.49,0.28-12.99-0.1-19.45c-0.25-4.34,1.38-5.69,5.38-5.08c0.81,0.12,1.68,0.12,2.49,0
		c3.43-0.48,4.31,1.21,4.15,4.33c-0.2,3.81,0.1,7.66-0.09,11.47c-0.15,2.91,1.04,3.89,3.8,3.65c1.65-0.14,3.35,0.17,4.98-0.06
		c3.83-0.54,4.89,1.08,4.71,4.76c-0.13,2.79-0.92,3.65-3.74,3.71c-9.71,0.22-9.71,0.34-9.71,10.04c0,1.83-0.22,3.69,0.04,5.48
		c0.7,4.78-1.13,6.17-5.97,6.17c-4.78,0.01-6.39-1.2-6.06-6.08C597.23,54.37,596.9,48.02,596.9,41.7z"/>
	<path class="st4" d="M331.7,112.8c-4.99,0-9.98,0.12-14.96-0.03c-9.54-0.28-14.39-5.19-14.56-14.62
		c-0.08-4.15,0.18-8.32-0.08-12.46c-0.21-3.4,1.2-4.52,4.34-4.09c0.16,0.02,0.33,0,0.5,0c7.07-0.08,7.07-0.08,7.07,6.81
		c0.01,15.64,0.01,15.64,15.72,15.64c5.65,0,11.32,0.2,16.96-0.07c3.88-0.19,3.7,2.04,3.78,4.72c0.09,2.83-0.53,4.32-3.81,4.16
		c-4.98-0.23-9.97-0.06-14.96-0.06C331.7,112.81,331.7,112.81,331.7,112.8z"/>
	<path class="st6" d="M757.28,71.58c-10.76,0-11.03,0.01-10.79,10.93c0.1,4.64-2.17,4.81-5.44,4.47c-2.88-0.3-6.77,1.71-6.68-4.25
		c0.17-11.12-0.12-11.13-12.08-11.15c-6.13-0.01-6.48-0.48-6.04-5.93c0.18-2.28,1.19-2.73,3.15-2.72
		c15.49,0.04,30.98,0.09,46.47-0.03c3.57-0.03,2.96,2.25,3,4.35c0.04,2.2,0.34,4.51-3.09,4.35
		C762.94,71.47,760.11,71.58,757.28,71.58z"/>
	<path class="st7" d="M528.86,43.89c0,7.16-0.09,14.31,0.04,21.47c0.06,3.01-0.58,4.59-4.11,4.5c-9.53-0.24-7.76,0.56-7.82-7.58
		c-0.1-13.64,0.17-27.29-0.13-40.93c-0.11-5.02,2.87-4.24,5.8-4.18c2.98,0.06,6.53-1.12,6.3,4.28
		C528.62,28.9,528.86,36.4,528.86,43.89z"/>
	<path class="st5" d="M689.79,45.42c0-7.99,0.13-15.99-0.06-23.97c-0.07-3.19,0.81-4.42,4.19-4.32c9.02,0.26,7.37-0.58,7.42,7.46
		c0.09,14.82-0.23,29.64,0.16,44.45c0.14,5.34-2.88,4.41-5.98,4.53c-3.36,0.13-6.14,0.4-5.85-4.68
		C690.12,61.08,689.79,53.24,689.79,45.42z"/>
	<path class="st5" d="M595.53,109.99c-2.83,0-5.67,0.09-8.5-0.02c-8.47-0.31-13.36-4.92-13.79-13.31
		c-0.26-5.15,0.02-10.33-0.17-15.48c-0.1-2.67,0.95-3.33,3.48-3.41c8.47-0.27,8.47-0.38,8.47,7.9c0,15.96,0.03,15.99,16.21,15.99
		c1.17,0,2.35,0.12,3.5-0.02c3.13-0.38,4.37,0.62,4.41,4.06c0.04,3.63-1.24,4.64-4.62,4.36c-2.98-0.25-5.99-0.05-8.99-0.05
		C595.53,110.01,595.53,110,595.53,109.99z"/>
	<path class="st5" d="M776.17,112.06c-3,0-6,0.14-8.98-0.03c-7.88-0.46-12.64-5.11-13.04-12.95c-0.25-4.98-0.01-9.98-0.14-14.97
		c-0.06-2.27,0.61-3.45,3.08-3.26c1.65,0.13,3.34,0.18,4.99-0.01c3.14-0.36,4.1,0.99,3.91,3.99c-0.22,3.31-0.1,6.65-0.03,9.98
		c0.14,6.67,2.35,8.83,9.15,8.95c3.83,0.07,7.67,0.19,11.48-0.03c3.43-0.2,3.23,1.91,3.2,4.17c-0.03,2.19,0.33,4.45-3.13,4.27
		c-3.48-0.19-6.99-0.04-10.48-0.04C776.17,112.11,776.17,112.08,776.17,112.06z"/>
	<path class="st8" d="M655.64,64.86c7.32,0,14.65,0.16,21.96-0.07c3.39-0.11,3.77,1.47,3.7,4.2c-0.07,2.69,0.1,4.71-3.81,4.65
		c-14.97-0.22-29.95-0.21-44.92-0.01c-3.94,0.05-3.6-2.12-3.72-4.74c-0.13-2.88,0.59-4.18,3.83-4.09
		C640.33,65,647.99,64.86,655.64,64.86z"/>
	<path class="st4" d="M25.31,52.91c0-1.46-0.58-3.37,0.87-4.16c5.18-2.82,2.98-6.74,1.87-10.55c-0.23-0.44-0.36-0.91-0.42-1.4
		c0.36-3.6,0.78-7.2-0.69-10.69c-0.14-0.77,0.06-1.48,0.38-2.17c1.02-3.14,0.42-6.38,0.59-9.57c-0.01-0.72,0-1.43,0.02-2.15
		c0.12-2.37,0.33-4.5-3.19-2.37c-2.87,1.74-5.91,3.46-9.56,2.8c-0.69-0.3-1.16-0.77-1.22-1.56c1.84-2.98,5.96-4.08,6.56-8.2
		c0.15-0.99,1.93-0.97,3.08-1.09c1.59-0.17,3.35,0.45,4.65-1.01c0.28-0.34,0.61-0.62,0.99-0.84c1.36,1.96,0.76,4.21,0.76,6.29
		c0.07,38.25,0.06,76.5,0.04,114.75c0,1.24,0.56,2.7-0.87,3.64c1.81-9.02-5.85-11.51-10.9-15.8c-0.36-0.59-0.03-1.05,0.26-1.49
		c-1.92-1.28-4.54,0.44-6.28-1.48c-1.77-0.3,3.9-4.52-2.33-2.79c4.94-4.07,10-5.87,15.63-6.2c1.96-0.12,3.65-0.1,3.63-2.81
		c-0.09-12.31-0.1-24.62-0.18-36.93c0-0.42-0.49-0.83-0.75-1.24c-0.31-0.32-0.45-0.7-0.44-1.14c-0.03-0.94,0.11-2.04-1.46-1.48
		C25.93,53.35,25.59,53.23,25.31,52.91z"/>
	<path class="st9" d="M96.16-0.13c0,16.71,0,33.42,0,50.86c7.49-3.2,13.96-1.45,20.25,1.95c-2.65-0.42-5.31-0.77-7.93-1.29
		c-0.87-0.17-1.58-1.45-2.58-0.4c-0.28,0.3-0.48,0.98-0.33,1.33c0.65,1.52,1.86,0.85,2.98,0.66c2.36-0.4,4.57,0.29,6.74,1.11
		c0.11,0.04,0.2,0.27,0.19,0.41c-0.01,0.15-0.14,0.29-0.22,0.44c-1.21,1.33-2.72,1.63-4.36,1.35c0.77,1.01,3.34-1.33,3.24,1.59
		c-3.19,0.55-5.8,2.31-6.86,5.2c-2.05,5.62-5.61,5.79-10.99,3c0,19.96,0,39.27,0,58.59c-1.47-0.92-0.87-2.4-0.87-3.63
		c-0.03-39.13-0.03-78.27-0.01-117.4C95.4,2.35,94.96,0.93,96.16-0.13z"/>
	<path class="st10" d="M93.24,0.94c0,4.34-0.01,8.67-0.01,13.01c-0.89,0.82-1.98,1.18-3.15,1.34c-8.11,1.14-15.81,3.6-23.14,7.23
		c-0.87,0.43-1.78,0.92-2.83,0.53c-1.54-5.92,0.68-10.07,5.63-13.46c4.78-3.28,9.37-6.79,14.95-8.63
		C87.51,0.03,90.39-0.92,93.24,0.94z"/>
	<path class="st11" d="M29.11,1.15c0.36,3.14-1.84,1.69-3.2,1.79c-2.25,0.17-4.95-1.21-5.14,3.3c-0.12,2.81-4.21,3.22-6.5,4.73
		c-2.42,3.08-6.1,4.15-9.34,5.93c-1.5,0.52-2.84,1.79-4.63,1.02C-0.06,11.94-0.15,5.96,0.34-0.02C9.19-1.16,18.07-0.27,26.93-0.5
		C28.03-0.53,28.78,0.07,29.11,1.15z"/>
	<path class="st12" d="M32.23,86.88c7.79-0.7,14.27,1.79,19.38,7.8c1.55,1.82,2.78,3.69,2.65,6.19c-0.4,4.17-1.16,8.02-6.76,7.54
		c-2.6,0.48-4.79-2.19-7.48-0.95c-0.63,0.59-1.12,1.34-1.94,1.7c-3.26-0.33-4.32-3.09-5.86-5.31C32.21,98.2,32.22,92.54,32.23,86.88
		z"/>
	<path class="st13" d="M27.28,25.9c3.62,3.32,1.86,7.15,1.01,10.89c-9.43-2.54-18.7-0.9-27.96,1.09c-0.02-2.32-0.05-4.64-0.07-6.96
		c1.55-2.99,4.58-3.63,7.4-4.32C14.13,25.02,20.63,22.89,27.28,25.9z"/>
	<path class="st14" d="M93.24,0.94C81.4,1.03,73.14,8.02,65.28,15.62c-1.95,1.89-0.78,4.71-0.91,7.13c0.5,0.76,0.41,1.51-0.01,2.27
		c0.01,15.56,0.02,31.13,0.03,46.69c0.37,0.62,0.79,1.22,0.95,1.94c0.33,2.23,0.19,4.49,0.16,6.73c-0.03,2.04,0.65,3.42,2.79,3.82
		c0.67,0.35,1.2,0.78,0.95,1.65c-4.17,0.87-5.18,3.48-5.03,7.54c0.33,8.76,0.15,17.55,0.18,26.32c0.29,0.42,0.53,0.87,0.73,1.34
		c0.31,1.33,0.16,2.54-0.87,3.54c-1.31-1.02-0.73-2.45-0.73-3.71c-0.04-39.06-0.05-78.13-0.04-117.19c0-1.28-0.4-2.68,0.69-3.79
		c2.38,2.84,1.12,6.18,1.2,9.5c4.77-2.58,8.74-6.15,13.4-8.19c-4.73-0.54-9.85,1.45-14.56-1.36c9.36-1.7,18.78-0.51,28.18-0.46
		C93.14-0.6,93.23,0.26,93.24,0.94z"/>
	<path class="st15" d="M61.32,65.86c0.02,5.03,0.03,10.06,0.05,15.09c-2.03,0.63-1.59-2.17-3.13-2.23c-0.57,1.1-1.3,2.12-1.99,3.17
		l0.02-0.02c-4.84,3.46-5.79,3.41-9.43-0.52c-2.72-5.02,1.52-6.4,4.43-8.47l-0.03,0.02c0.28-0.79,3.59-0.57,0.8-2.37
		c-0.55-0.35-1.16-0.62-1.75-0.92c-2.55-1.29-4.28-3-3.61-6.21c0.45-2.16,1.58-3.69,3.81-3.92c3.07-0.31,5.96,0.02,7.45,3.4
		c0.66,1.49,1.56,2.9,1.13,4.67C59.75,66.9,59.7,65.25,61.32,65.86z"/>
	<path class="st11" d="M29.11,14.15c-0.34,3.58,1.06,7.29-0.82,10.74c-8.61-0.43-17.04,0.39-25.11,3.67
		c-0.9,0.37-1.86,0.68-2.87,0.34c0-1.66,0-3.31,0-4.97c2.13-3.63,6.1-4.42,9.5-6.01c4.54-2.11,9.33-3.52,14.25-4.48
		C25.84,13.1,27.65,12.34,29.11,14.15z"/>
	<path class="st16" d="M64.37,25.01c0-0.75,0.01-1.51,0.01-2.26c8.98-5.02,18.37-8.7,28.85-8.8c-0.01,4.33-0.01,8.65-0.02,12.98
		c-1.8,1.01-3.22,0.1-4.49-1.01C80.83,19.05,72.67,20.37,64.37,25.01z"/>
	<path class="st17" d="M50.26,0.94c-0.59,10.12-7.49,14.7-18.04,11.98c0-1.31-0.01-2.63-0.01-3.94c1.72-5.25,4.91-8.72,10.78-9.02
		C45.42,0.21,48.02-0.75,50.26,0.94z"/>
	<path class="st18" d="M11.21,124.76c-0.55-1.4-3.06-2.41,0.32-4.2c1.9-1.01,1.93-4.68,1.71-7.38c-0.24-2.91,0.81-3.48,3.43-2.18
		c3.91,1.95,6.43,5.03,8.16,8.92c0.74,1.65,1.62,3.25,2.43,4.87C21.91,124.78,16.56,124.77,11.21,124.76z"/>
	<path class="st18" d="M0.28,99.86c8.5,2.82,11.96,8.16,10.49,15.22c-0.77,3.71-2.19,4.43-5.22,2.42c-1.77-1.17-3.51-2.41-5.26-3.62
		C0.3,109.21,0.29,104.54,0.28,99.86z"/>
	<path class="st19" d="M125.16,44.93c-3.49,2.45-5.27,0.32-6.57-2.58c-0.95-2.12-1.53-4.36-1.36-6.76c0.48-6.69,2.28-7.77,7.94-4.68
		C125.17,35.58,125.16,40.26,125.16,44.93z"/>
	<path class="st20" d="M93.18,110.89c0.08,1.49,0.22,2.98,0.23,4.47c0.06,10.13,0.05,10.13-10.14,9.33
		c-2.05-1.03-4.18-1.95-5.3-4.17c2.23-2.49,5.94-2.37,8.28-4.68l-0.01,0.01C88.94,114.75,89.85,111.12,93.18,110.89z"/>
	<path class="st21" d="M61.36,9.9c-2.35,0.16-4.54-0.2-6.77-1.19c-2.46-1.1-3.27-2.51-2.15-4.97c1.01-2.22,1.2-3.98-2.13-3.68
		c-2.69,0.79-5.43,0.17-8.15,0.37c-3.29,0.03-6.69,2.27-9.84-0.49c6.3-1.92,12.75-0.72,19.12-0.79C61.98-0.98,61.98-0.78,61.36,9.9z
		"/>
	<path class="st9" d="M125.19,64.89c-1.8-0.58-3.25,2.84-5.26,0.39c-2.12-2.58-2.51-9.7-0.42-12.83c1.48-2.21,3.41-4.06,5.65-5.54
		C125.17,52.91,125.18,58.9,125.19,64.89z"/>
	<path class="st22" d="M61.35,25.91c-6.61-1.55-8.11-7.62-11.11-12.4c-0.82-1.3,0.43-1.73,0.59-2.58c0.26-1.37,1.23-0.62,1.83-0.24
		c2.72,1.72,5.75,1.16,8.68,1.28C61.35,16.62,61.35,21.27,61.35,25.91z"/>
	<path class="st15" d="M32.21,103.85c2.02,1.67,4.03,3.33,6.05,5c4.55-0.11,9.21,2.06,13.61-0.73c1.2-0.41,2.38-1.09,3.65-0.24
		c-1.33,5.29-2.58,10.63-7.34,14.15c-2.61-5.99-6.53-10.23-13.61-10.45c-0.99-0.03-1.64-1.06-2.4-1.69
		C32.18,107.88,32.2,105.86,32.21,103.85z"/>
	<path class="st18" d="M0.24,78.9C6,81.83,8.64,93.07,4.73,97.67c-1.57,1.84-3.02-0.04-4.5,0.19C0.23,91.54,0.24,85.22,0.24,78.9z"
		/>
	<path class="st23" d="M0.3,17.92c1.32-0.66,2.64-1.33,3.96-1.99c4.17,0.03,6.88-3.96,11.03-3.97c3.41-0.11,6.26-1.8,9.26-3.14
		c1.45-0.64,2.3-3.29,3.96-2.2c1.54,1.01,0.49,3.36,0.6,5.12c-1.09,1.49-2.87,1.64-4.4,1.91c-7.18,1.25-13.83,3.93-20.3,7.15
		c-1.28,0.64-2.52,1.65-4.14,1.12C0.28,20.59,0.29,19.26,0.3,17.92z"/>
	<path class="st15" d="M46.23,124.74c-1.32,0-2.64-0.01-3.96-0.01c-0.37-0.55,0.01,0.23-0.34-0.34c-3.5-5.67-3.5-5.67-9.68-5.53
		c-0.01-2.33-0.03-4.67-0.04-7c8.29-1.58,12.66,1.1,15.43,9.44C48,122.78,47.31,123.84,46.23,124.74z"/>
	<path class="st24" d="M32.22,15.94c2.49,0.41,6.63-1.24,7.19,0.99c0.88,3.52-2.01,6.63-5,8.87c-0.65,0.48-1.45,0.76-2.19,1.13
		C32.23,23.27,32.22,19.6,32.22,15.94z"/>
	<path class="st25" d="M61.32,65.86c-0.78,1.37-1.57,2.74-2.68,4.68c-0.37-2.62-0.39-4.7-0.99-6.61c-0.9-2.9-3.29-4.01-6.19-3.97
		c-2.3,0.03-3.71,1.34-4.12,3.55c-0.55,2.98,1.19,4.64,3.66,5.74c1.89,0.84,3.81,1.62,6.18,2.62c-2.1,1.58-4.13,0.78-5.95,1.03
		c1.19-2.26-0.97-2.31-2.04-3.03c-2.16-1.44-4.03-3.08-3.39-5.99c0.51-2.32,1.33-4.68,4.18-4.89c2.91-0.21,6.03-0.82,8.04,2.41
		c0.72,1.16,0.62,3.71,3.25,2.49C61.29,64.55,61.3,65.2,61.32,65.86z"/>
	<path class="st26" d="M64.25,124.59c0.06-1.19,0.11-2.37,0.17-3.56c4.29-1.24,8.64-1.04,12.86,0.06c1.65,0.43,3.98,1,3.94,3.65
		C75.56,124.98,69.9,125.26,64.25,124.59z"/>
	<path class="st27" d="M0.27,21.93c9.04-5.01,18.63-8.5,28.84-10.18c0,0.8,0,1.6,0,2.4c-10.5,0.63-19.69,5.11-28.8,9.79
		C0.3,23.27,0.28,22.6,0.27,21.93z"/>
	<path class="st28" d="M0.31,28.91c7.66-3.03,15.42-5.55,23.83-4.98c1.44,0.1,3-0.35,4.15,0.97c-0.34,0.34-0.67,0.67-1.01,1.01
		c-9.4-0.45-18.53,0.56-27.01,5.02C0.28,30.25,0.29,29.58,0.31,28.91z"/>
	<path class="st29" d="M0.33,37.88c9.2-3.45,18.49-4.72,27.96-1.09c-0.08,0.47-0.15,0.93-0.23,1.4c-9.52-3.67-18.69-1.82-27.75,1.74
		C0.32,39.25,0.32,38.57,0.33,37.88z"/>
	<path class="st30" d="M40.24,124.74c-1.16,0.05-2.33,0.01-3.47,0.16c-4.03,0.54-5.61-1.02-4.49-5.04c2.26-1.58,4.73-2.91,7.22-0.88
		C41.31,120.46,41.61,122.62,40.24,124.74z"/>
	<path class="st31" d="M32.32-0.06c3.29,0.04,6.59,0.08,9.88,0.12c0.36,0.18,0.49,0.37,0.38,0.57c-0.11,0.2-0.22,0.31-0.34,0.31
		C37.35,1.69,34.99,5.6,32.2,8.98C31.92,5.96,31.7,2.95,32.32-0.06z"/>
	<path class="st32" d="M46.23,124.74c0.34-0.96,0.68-1.92,1.01-2.88c0.34-0.49,0.69-0.47,1.05-0.02c2.92-4.36,5.3-8.98,6.96-13.97
		c0.88-0.2,1.41-0.06,1.01,1.02c-1.2,5.77-4.36,10.68-6.96,15.83C48.29,124.73,47.26,124.73,46.23,124.74z"/>
	<path class="st33" d="M29.11,1.15C27.48-0.4,25.43,0.01,23.49,0C15.78-0.03,8.06-0.02,0.34-0.02c2.48-1.9,5.37-0.94,8-0.84
		c6.97,0.26,14.02-1.18,20.92,0.82C29.21,0.35,29.16,0.75,29.11,1.15z"/>
	<path class="st34" d="M48.3,121.83c-0.35,0.01-0.7,0.02-1.05,0.02c-3.36-8.53-5.47-9.94-15.03-10c-0.01-0.65-0.03-1.31-0.04-1.96
		c1.61,0.32,3.21,0.75,4.84,0.94C43.92,111.67,46.91,114.56,48.3,121.83z"/>
	<path class="st35" d="M93.2,94.9c0.01,1.33,0.01,2.65,0.02,3.98c-1.08,1.46-2.05,3.33-4.31,1.86c-1.24-0.81-2.68-1.96-1.86-3.62
		C88.29,94.6,90.39,93.56,93.2,94.9z"/>
	<path class="st36" d="M81.21,124.74c-4.75-5.1-10.91-3.79-16.8-3.71c-0.01-0.44-0.02-0.88-0.03-1.32
		c3.61,0.03,7.22,0.07,10.82,0.11c1.45-0.94,2.31-0.06,3.11,1c2.41,0.32,3.65,2.13,4.95,3.87C82.59,124.71,81.9,124.73,81.21,124.74
		z"/>
	<path class="st37" d="M93.2,94.9c-0.49-0.01-0.98,0-1.47-0.02c-1.83-0.09-3.17,0.74-3.97,2.31c-0.68,1.33,0.39,2.11,1.25,2.84
		c1.93,1.64,2.79-0.79,4.2-1.15c0.01,0.66,0.01,1.31,0.02,1.97c-1.98,1.13-3.9,1.6-5.75-0.29c-1.14-1.17-1.58-2.53-0.95-4
		c1.3-3.05,4.05-2.77,6.67-2.71C93.19,94.2,93.19,94.55,93.2,94.9z"/>
	<path class="st38" d="M40.24,124.74c-0.13-6.32-0.92-6.8-7.96-4.88c-0.01-0.34-0.02-0.68-0.03-1.02c6.72-3.3,8.55-2.23,10.02,5.87
		C41.6,124.73,40.92,124.74,40.24,124.74z"/>
	<path class="st39" d="M56.24,81.9c0.51-2.17,1.02-4.34,1.71-7.24c1.84,2.28,1.31,5.08,3.41,6.3c-0.03,0.65-0.06,1.29-0.09,1.94
		C59.73,81.93,58.5,79.33,56.24,81.9z"/>
	<path class="st29" d="M0.31,118.84c3.47,0.49,5.4,2.52,5.98,5.92c-0.68,0.01-1.36,0.02-2.04,0.03c-1.23-1.11-2.99-1.51-3.99-2.94
		C0.28,120.85,0.29,119.85,0.31,118.84z"/>
	<path class="st40" d="M0.26,48.91c2.71,0.21,5.38-0.22,8.1-0.57c-2.31,2.13-5.31,1.95-8.04,2.58C0.3,50.25,0.28,49.58,0.26,48.91z"
		/>
	<path class="st41" d="M93.18,110.89c-2.64,1.21-3.63,4.71-6.95,4.97c1.91-2.75,4.31-5,6.96-7.02
		C93.2,109.53,93.19,110.21,93.18,110.89z"/>
	<path class="st42" d="M0.26,121.85c1.8,0.34,3.65,0.61,3.99,2.94C2.09,124.94-0.6,125.81,0.26,121.85z"/>
	<path class="st19" d="M117.22,47.9c-5.33,0.54-10.22-0.3-13.98-4.55c-4.06-4.6-5.19-9.85-3.29-15.68c0.48-1.48,1.42-2.58,3.17-2.75
		c3.43-0.34,6.47,0.57,9.52,2.15c3.73,1.93,3,4.89,2.61,8.03c-0.36,2.98-0.02,5.95,1.01,8.8c0.47,0.82-0.02,1.14-0.71,1.35
		c-1.01-0.35-1.5-1.24-2.07-1.98c0.03,0.03-0.26,0.26-0.26,0.26s0.35,0.14,0.37,0.16c0.56,0.72,1.09,1.42,1.88,1.87
		C116.36,46.11,117.07,46.8,117.22,47.9z"/>
	<path class="st19" d="M114.25,60.09c1.63-0.2,1.62,1.02,2.09,2.11c1.08,2.55,0.51,5.93,4.06,7.33c1.66,0.65,0.03,2.11-0.48,2.77
		c-2.74,3.52-6.59,5.36-10.83,6.42c-1.15,0.29-2.19,0.12-2.75-1.34c-1.75-4.55,2.4-14.71,7.01-16.9
		C113.64,60.35,113.94,60.22,114.25,60.09z"/>
	<path class="st43" d="M114.13,57.87c-1.48-1.65-2.93-0.96-4.41,0.02c-0.83,0.55-1.89,1.28-2.24-0.32
		c-0.29-1.33,0.87-1.49,1.92-1.64c1.96-0.28,3.9-0.66,5.85-0.99C116.05,56.36,115.83,57.4,114.13,57.87z"/>
	<path class="st44" d="M117.22,47.9c-0.66-0.65-1.32-1.29-1.99-1.94c-0.3-0.25-0.4-0.49-0.29-0.72c0.11-0.23,0.21-0.35,0.32-0.35
		c0.34-0.33,0.68-0.67,1.02-1c0.81,0.99,1.68,1.95,2.42,3c0.33,0.46,1.73,0.99,0.28,1.65C118.57,48.73,117.81,48.14,117.22,47.9z"/>
	<path class="st45" d="M64.39,74.02c0-0.77,0-1.55,0.01-2.32c3.86,0.32,7.14,1.37,8.19,5.76c0.87,3.64-0.11,6.44-3.35,8.38
		c-0.35-0.33-0.69-0.66-1.04-0.99C69.95,80.19,69.29,76.36,64.39,74.02z"/>
	<path class="st41" d="M78.32,120.83c-1.04-0.33-2.07-0.67-3.11-1c3.68-1.32,7.36-2.65,11.04-3.97
		C84.54,118.99,80.7,118.75,78.32,120.83z"/>
	<path class="st17" d="M42.27,22.95c0.33,0.76,0.81,1.62,1.69,1.36c0.91-0.27,0.65-1.18,0.57-2.02c-0.23-2.48-1.11-5.05,0.72-7.34
		c2.26,1.47,1.95,4.27,3.6,6.71c-1.26-2.49-1.81-4.65-2.61-6.71c0.4-0.21,1.04-0.71,1.17-0.59c7.94,6.49,7.63,22.35-0.52,28.41
		c-0.27,0.2-0.49,0.56-0.78,0.61c-5.17,0.92-7.32-3.21-9.64-6.34c-1.78-2.4-5.49-5.24-1.16-8.82c2.44-2.01,4.76-4.18,5.95-7.24
		C43.11,20.87,42.86,21.82,42.27,22.95z"/>
	<path class="st46" d="M56.27,108.88c-0.34-0.34-0.68-0.68-1.01-1.02c-1,0.34-2,0.67-3,1.01c-0.88-0.04-1.75,0.02-2.63,0.05
		c-0.91-0.08-1.78-0.27-2.37-1.07c4.39-0.26,5.74-3.57,6.99-6.98c0.04,1.78-0.22,3.64,1.56,5.25c1.37-3.03,2.02-6.11,2.46-9.25
		c0.32-0.45,0.64-0.45,0.97,0C59.03,101.07,58.02,105.07,56.27,108.88z"/>
	<path class="st32" d="M47.23,80.89c2.56,4.45,5.85,2.23,9.04,0.99c-4.06,4.67-7.49,4.34-10.03-0.99
		C46.57,80.48,46.9,80.48,47.23,80.89z"/>
	<path class="st47" d="M46.24,14.93c2.2,2.67,3.2,5.73,2.67,9.32c-1.22-3.11-2.45-6.21-3.67-9.32
		C45.58,14.93,45.91,14.93,46.24,14.93z"/>
	<path class="st25" d="M47.23,80.89l-0.5,0c0,0-0.5,0-0.5,0c-1.51-4.53-0.47-6.18,5.03-8.01C49.79,75.48,44.84,76.34,47.23,80.89z"
		/>
	<path class="st48" d="M59.24,96.87c-0.32,0-0.64,0-0.97,0c0.46-3.67,0.92-7.33,1.38-11C60.49,89.6,60.46,93.26,59.24,96.87z"/>
	<path class="st46" d="M42.27,22.95c-0.04-0.81-0.18-1.56-0.99-1.99c0.46-1.32,0.93-2.63,1.79-5.08
		C43.11,19.04,44.02,21.09,42.27,22.95z"/>
	<path class="st49" d="M42.24,0.93c0.01-0.29,0-0.58-0.04-0.87c2.7,0,5.41,0,8.11,0c-0.04,0.29-0.06,0.59-0.06,0.88
		C47.58,0.94,44.91,0.93,42.24,0.93z"/>
	<path class="st18" d="M24.27,81.84c0.02,8.95-5.52,15.79-13.4,17.1c-1.57,0.26-4.16,0.32-2.82-3.01c1.91-4.75,1.4-9.42-1.17-13.85
		c-1.15-1.98-0.1-3.55,0.99-5c0.57-0.76,1.53-1.24,2.36-1.78c2.9-1.89,5.94-4.75,9.47-2.91C23.59,74.41,23.91,78.81,24.27,81.84z"/>
	<path class="st50" d="M12.26,105.87c2.28-0.19,4.61,0.4,6.84-0.46c1.02-0.4,2.21-0.48,2.45,0.68c0.33,1.62-1.15,1.64-2.28,1.77
		c-2.3-0.5-4.72-0.12-6.97-0.96C12.28,106.56,12.27,106.21,12.26,105.87z"/>
	<path class="st28" d="M12.29,106.9c2.32,0.34,4.87-0.96,6.97,0.96c-0.33,0.33-0.66,0.65-0.98,0.98
		C16.28,108.2,14.03,108.33,12.29,106.9z"/>
	<path class="st33" d="M25.31,52.91c0.33,0,0.66-0.01,0.99-0.01c1.58-0.28,2.24,0.36,1.96,1.95c0,0.35-0.01,0.69-0.01,1.04
		C26.88,55.28,25.88,54.3,25.31,52.91z"/>
	<path class="st51" d="M565.29,38.67c4.18-0.05,7.63,3.53,7.75,8.05c0.12,4.46-3.2,8.25-7.39,8.41c-4.63,0.18-7.89-3.26-7.85-8.27
		C557.86,42.05,560.9,38.72,565.29,38.67z"/>
	<path class="st52" d="M335.03,35.82c0,4.12-3.89,7.94-8.06,7.91c-4.56-0.03-7.83-3.29-7.9-7.87c-0.07-4.62,3.07-7.94,7.62-8.03
		C331.46,27.75,335.03,31.16,335.03,35.82z"/>
	<path class="st51" d="M748.24,36.44c0.08,4.52-3.21,8.02-7.65,8.14c-4.58,0.12-8.36-3.58-8.3-8.11c0.06-4.44,3.46-7.74,8-7.75
		C744.91,28.7,748.16,31.85,748.24,36.44z"/>
	<path class="st51" d="M654.07,44.27c-4.76,0.07-7.95-2.91-8.07-7.52c-0.12-4.9,3.08-8.16,7.99-8.13c4.47,0.03,7.91,3.4,7.96,7.8
		C662,40.79,658.58,44.21,654.07,44.27z"/>
	<path class="st53" d="M15.3,11.96c-3.72,1.2-6.57,4.84-11.03,3.97c3.34-1.65,6.67-3.31,10.01-4.96
		C14.61,11.3,14.96,11.63,15.3,11.96z"/>
	<path class="st54" d="M28.27,54.85c-0.65-0.65-1.31-1.3-1.96-1.95c0.16-1.38,0.88-2.47,2.2-1.47
		C29.68,52.32,29.44,53.77,28.27,54.85z"/>
	<path class="st3" d="M18,101.59c0.84-1.07,1.57-2.15,3.04-2.03c0.23,0.02,0.68,0.9,0.55,1.12C20.79,102.12,19.48,101.98,18,101.59z
		"/>
	<path class="st55" d="M36.26,98.87c0.29-1.77,4.36-0.78,2.84-4.06c-0.49-1.07,1.05-1.06,1.66-0.82c2.4,0.92,4.93,1.72,7.03,3.14
		c1.57,1.06,4.1,2.94,2.18,5.04c-1.51,1.65-4.17,3.77-6.73,0.7c0.3-0.38,0.69-0.7,0.95-1.13c-0.36,0.34-0.66,0.73-0.94,1.13
		c-2.58,0.15-3.43-3.15-6-3.01C36.7,99.76,36.37,99.43,36.26,98.87z"/>
	<path class="st56" d="M47.26,107.86c0.99,0,1.99,0.01,2.98,0.01c-2.53,4.08-8.1,3.57-10.98-1.01c0.14-1.43,0.72-2.04,2.22-1.37
		C43.38,106.33,45.33,107.07,47.26,107.86z"/>
	<path class="st57" d="M39.26,106.86c4.15,3.84,7.24,4.13,10.98,1.01c0.83,0.01,1.58,0.19,2.01,1.01c-4.67,3.5-9.34,2.36-14-0.02
		C38.27,108.03,38.46,107.29,39.26,106.86z"/>
	<path class="st58" d="M36.26,98.87c0.33,0.33,0.66,0.66,0.99,0.99c0.04,0.55,0.2,1.57,0.11,1.59c-1.11,0.29-1.74-0.57-2.19-1.32
		C34.47,98.96,35.54,99,36.26,98.87z"/>
	<path class="st59" d="M64.2-0.15c5.63,0,11.25,0,18.45,0C75.98,4.2,70.5,7.77,64.16,11.9c0-4.54,0-8.27,0-11.99
		C64.16-0.09,64.2-0.15,64.2-0.15z"/>
	<path class="st60" d="M64.39,74.02c6.5,1.24,7.81,4.95,3.81,10.83c-2.75,1.02-4.38,0.74-3.98-2.86
		C64.52,79.36,64.35,76.68,64.39,74.02z"/>
	<path class="st61" d="M54.03,13.37c2.49,1.5,4.36,0.97,4.77,2.79c0.08,0.35-0.74,1.31-1.12,1.3C55.88,17.41,55.67,15.7,54.03,13.37
		z"/>
	<path class="st62" d="M113.23,43.99c-1.16-0.27-2.86-0.21-2.17-2.09c0.38-1.03,1.45-1.02,2.18,0
		C113.82,42.61,113.81,43.3,113.23,43.99z"/>
	<path class="st63" d="M113.23,43.99c0-0.7,0.01-1.39,0.01-2.09c0.67,1,1.34,1.99,2.01,2.99c-0.01,0.36-0.02,0.71-0.02,1.07
		C114.56,45.31,113.9,44.65,113.23,43.99z"/>
	<path class="st64" d="M12.29,94.18c-0.99,0.08-0.95-0.7-0.96-1.32c-0.02-0.89,0.3-1.71,1.32-1.77c0.98-0.06,1.54,0.52,1.41,1.55
		C13.93,93.63,13.12,93.91,12.29,94.18z"/>
	<path class="st12" d="M43.26,102.87c-1.07-2.18,0.61-2.41,2.01-2.7c0.34-0.07,1.17,0.45,1.15,0.63
		C46.2,102.69,44.59,102.6,43.26,102.87C43.25,102.87,43.26,102.87,43.26,102.87z"/>
</g>
</svg>
