<?xml version="1.0" encoding="utf-8"?>
<!-- Generator: Adobe Illustrator 27.0.0, SVG Export Plug-In . SVG Version: 6.00 Build 0)  -->
<svg version="1.1" id="Layer_1" xmlns="http://www.w3.org/2000/svg" xmlns:xlink="http://www.w3.org/1999/xlink" x="0px" y="0px"
	 viewBox="0 0 709 125" style="enable-background:new 0 0 709 125;" xml:space="preserve">
<style type="text/css">
	.st0{fill:#956855;}
	.st1{fill:#A17A3B;}
	.st2{fill:#527093;}
	.st3{fill:#875B6C;}
	.st4{fill:#A67A8F;}
	.st5{fill:#C28273;}
	.st6{fill:#A2793A;}
	.st7{fill:#875C6D;}
	.st8{fill:#587DA1;}
	.st9{fill:#875C6C;}
	.st10{fill:#D39654;}
	.st11{fill:#527094;}
	.st12{fill:#D49451;}
	.st13{fill:#6490B4;}
	.st14{fill:#A67A8E;}
	.st15{fill:#C28072;}
	.st16{fill:#A27A3C;}
	.st17{fill:#6692B5;}
	.st18{fill:#618EB1;}
	.st19{fill:#8A5F70;}
	.st20{fill:#628FB2;}
	.st21{fill:#5F89AD;}
	.st22{fill:#A47B3F;}
	.st23{fill:#A4778C;}
	.st24{fill:#9E7286;}
	.st25{fill:#A4788C;}
	.st26{fill:#557598;}
	.st27{fill:#537195;}
	.st28{fill:#608BAF;}
	.st29{fill:#A57B8E;}
	.st30{fill:#6088AC;}
	.st31{fill:#A47B3D;}
	.st32{fill:#D09350;}
	.st33{fill:#C88E4C;}
	.st34{fill:#5E84A8;}
	.st35{fill:#5F89AC;}
	.st36{fill:#986D7F;}
	.st37{fill:#C38C49;}
	.st38{fill:#8E6273;}
	.st39{fill:#9C6C59;}
	.st40{fill:#B17766;}
	.st41{fill:#D09451;}
	.st42{fill:#5E86A9;}
	.st43{fill:#597DA0;}
	.st44{fill:#5E85A8;}
	.st45{fill:#5B80A3;}
	.st46{fill:#8E6274;}
	.st47{fill:#A6798D;}
	.st48{fill:#895D6E;}
	.st49{fill:#557498;}
	.st50{fill:#55769A;}
	.st51{fill:#597EA1;}
	.st52{fill:#56769A;}
	.st53{fill:#A57F45;}
	.st54{fill:#A67F44;}
	.st55{fill:#547498;}
	.st56{fill:#996A57;}
	.st57{fill:#A57160;}
	.st58{fill:#8C6071;}
	.st59{fill:#FFFFFF;}
</style>
<g>
	<path class="st0" d="M125.2,64.9c0.1,18.8,0.1,37.6,0.2,56.4c0,2.3-0.2,3.8-3.2,3.7c-8.6-0.2-17.3-0.2-25.9-0.3
		c-0.9-1.4-0.5-2.9-0.5-4.3c0-16.6,0-33.2-0.1-49.8c0-3.3,0.1-5.7,4.4-4.6c2.4,0.6,4.1-0.7,5.3-2.7c1.6-2.6,3.6-4.8,6.5-5.9
		c0.8-0.7,3-0.1,1.9-2.3c-2.1-0.9-4.3-0.3-6.4-0.6c-1.7-0.3-2.9-1.2-2.4-3c0.5-1.6,1.8-1.7,3.2-0.9c1.5,0.8,3.1,0.6,3.9,0.6
		c-4-1.4-8.9-0.9-13.7,0.2c-1.9,0.4-2.7-0.5-2.7-2.5c0.3-16.3-0.5-32.5,0.4-48.8c9-1.5,18.2-0.3,27.2-0.6c2.2-0.1,2,1.8,2,3.3
		c0,9.5-0.1,18.9-0.2,28.4c-3.1-0.3-6.2-1-6.6,3.9c-0.5,5.4,1.5,8.9,6.6,10.2c0,0.7,0,1.3,0,2c-0.9,2-2.3,3.5-3.7,5.2
		c-2.8,3.5-2.2,7.3-1.1,11.3C121.2,66.7,124,62.9,125.2,64.9z"/>
	<path class="st1" d="M93.2,26.9c0,22.3,0,44.6,0,66.9c-0.2,0.2-0.5,0.5-0.7,0.6c-1.7,1-4.7,0.6-4.6,3.5c0.2,3.4,3.5,1.9,5.3,2.9
		c0,2.7,0,5.3,0,8c-1.4,3-3.9,5.1-6.3,7.3c-0.4,0.3-0.8,0.6-1.2,0.8c-3.6,2-7.6,2.9-11.6,4c-3.4,0-7,1.3-10.1-1.2
		c-0.5-9.8,0-19.5-0.2-29.3c-0.1-2.7,1.1-4.4,3.6-5.3c2.8-1,4.3-3.1,4.3-6c-0.1-3.1-2-5.1-5-6c-1.4-0.4-2.9-0.8-2.8-2.8
		c0-14.7,0-29.3,0-44c0-2.2,1.4-3.3,3.1-4.1c6.7-2.9,13.4-3.9,19.9,0.7C88.8,24.5,91.1,25.6,93.2,26.9z"/>
	<path class="st2" d="M61.3,25.9c0.3,12.7,0.4,25.3-0.1,38c-1.8,2.4-2.8,0.6-3.7-0.8c-1.2-1.8-2.5-3-4.8-3c-2.2,0-4.3,0.2-5.3,2.7
		c-0.9,2.4,0.1,4.1,1.9,5.6c1.3,1.1,3.7,1.4,2.8,4c-0.2,0.4-0.5,0.8-0.9,1.1c-2.7,1.6-5.7,3.1-4.2,7.1c2.2,4,4.9,3.7,8,1.1
		c0.3-0.3,0.7-0.6,1-0.9c3.1-2.7,4,0,5.1,2c0.1,13,0.2,26.1,0.3,39.1c0,2.1-0.7,3-2.9,2.9c-3.1-0.2-6.3-0.2-9.4-0.2
		c-0.9-3.2,1.7-5.2,2.7-7.7c1.2-2.9,2.2-5.9,3.6-8.7c2-3.7,2.9-7.6,3.2-11.8c1-3.3,1.3-6.6,0.8-9.9c-0.1-0.7-1.1,0.2-0.5-0.1
		c0.3-0.1,0.4,0,0.4,0.2c0.6,3.4-0.1,6.8-0.9,10.1c-0.1,3.5-1.3,6.7-2.5,10.4c-2.8-1.2-3.1-3.4-3.3-5.7c-1.2-6.7-7.3-12.2-15.1-13.3
		c-1.9-0.3-4,0.1-5.6-1.4c-0.4-20-0.4-40,0-60c1.2-2,3.2-3.4,4.4-5.4c1.4-2.3,2.5-4.4-1.7-4.5c-1,0-2-0.4-2.7-1.1c0-1,0-2,0-3
		c0.5-0.5,1.1-0.6,1.8-0.6c10.2,0.2,12.8-1.8,15.7-11.8c0.1-0.5,0.4-0.8,0.9-1c1.8-0.2,3.9,0.2,3.3,2.4c-1.5,5.4,2.1,6.1,5.7,7
		c0.7,0.2,1.2,0.6,1.7,1c0,0.7,0,1.4,0,2.1c-3,2.4-6.2,0.5-9.7,0.1C52.9,18.3,57.1,22.2,61.3,25.9z"/>
	<path class="st3" d="M29.2,124.6c-0.6,0.1-1.3,0.1-1.9,0.2c-2-0.9-2.8-2.8-3.7-4.6c-1-1.9-2-3.9-3.6-5.3c-1.3-1.2-2.7-3.1-4.6-2.4
		c-1.6,0.6-1,2.7-1.1,4.1c-0.3,3.1-3.1,5.1-3.1,8.2c-1.6,0-3.3,0-4.9,0c-1.8-2.1-3.8-4.1-6-5.9c0-1.7,0-3.3,0-5
		c2.3-0.6,3.5,1.4,5.2,2.2c2.5,1.3,3.8,0.5,4.1-2.1c0.6-4.4-1-8.1-4.6-10.7c-1.6-1.2-3.5-1.8-4.8-3.4c0-0.7,0-1.3,0-2
		c4.8-1.3,4.9-5,4.7-8.9c-0.2-4-2.3-7.1-4.7-10c0-9.3,0.1-18.7,0.1-28c1.4-1.3,3.2-1.3,5.1-1.5c-1.8-0.3-3.6,1.2-5.1-0.5
		c0-3,0-6,0.1-9c8.8-6.3,18.1-6.4,27.9-2.7c2.4,4.2,2.2,9-0.6,12.4c-0.5,0.7-0.8,1.4-0.8,2.2c0.1,1.9,2,2.7,2.7,4.2
		c0.6,12.8,0.1,25.5,0.3,38.2c0,2.6-1.1,3.7-3.4,3.8c-3.3,0.2-6.5,1.2-9.7,2.2c-2.5,0.8-3.6,2-2.8,4.6c-0.1,0.4,0,0.8,0.1,1.2
		c1.6,1.3,3.7,1.3,5.4,2.1c4,1.5,6.6,5,9.6,7.7C31,117.6,30,121.6,29.2,124.6z"/>
	<path class="st4" d="M25.3,52.9c0-1.5-0.6-3.4,0.9-4.2c5.2-2.8,3-6.7,1.9-10.5c-0.2-0.4-0.4-0.9-0.4-1.4c0.4-3.6,0.8-7.2-0.7-10.7
		c-0.1-0.8,0.1-1.5,0.4-2.2c1-3.1,0.4-6.4,0.6-9.6c0-0.7,0-1.4,0-2.1c0.1-2.4,0.3-4.5-3.2-2.4c-2.9,1.7-5.9,3.5-9.6,2.8
		c-0.7-0.3-1.2-0.8-1.2-1.6c1.8-3,6-4.1,6.6-8.2c0.1-1,1.9-1,3.1-1.1c1.6-0.2,3.4,0.4,4.6-1c0.3-0.3,0.6-0.6,1-0.8
		c1.4,2,0.8,4.2,0.8,6.3c0.1,38.2,0.1,76.5,0,114.8c0,1.2,0.6,2.7-0.9,3.6c1.8-9-5.9-11.5-10.9-15.8c-0.4-0.6,0-1.1,0.3-1.5
		c-1.9-1.3-4.5,0.4-6.3-1.5c-1.8-0.3,3.9-4.5-2.3-2.8c4.9-4.1,10-5.9,15.6-6.2c2-0.1,3.6-0.1,3.6-2.8c-0.1-12.3-0.1-24.6-0.2-36.9
		c0-0.4-0.5-0.8-0.8-1.2c-0.3-0.3-0.5-0.7-0.4-1.1c0-0.9,0.1-2-1.5-1.5C25.9,53.3,25.6,53.2,25.3,52.9z"/>
	<path class="st5" d="M96.2-0.1c0,16.7,0,33.4,0,50.9c7.5-3.2,14-1.5,20.2,2c-2.7-0.4-5.3-0.8-7.9-1.3c-0.9-0.2-1.6-1.5-2.6-0.4
		c-0.3,0.3-0.5,1-0.3,1.3c0.7,1.5,1.9,0.8,3,0.7c2.4-0.4,4.6,0.3,6.7,1.1c0.1,0,0.2,0.3,0.2,0.4c0,0.2-0.1,0.3-0.2,0.4
		c-1.2,1.3-2.7,1.6-4.4,1.3c0.8,1,3.3-1.3,3.2,1.6c-3.2,0.5-5.8,2.3-6.9,5.2c-2.1,5.6-5.6,5.8-11,3c0,20,0,39.3,0,58.6
		c-1.5-0.9-0.9-2.4-0.9-3.6c0-39.1,0-78.3,0-117.4C95.4,2.3,95,0.9,96.2-0.1z"/>
	<path class="st6" d="M93.2,0.9c0,4.3,0,8.7,0,13c-0.9,0.8-2,1.2-3.2,1.3c-8.1,1.1-15.8,3.6-23.1,7.2c-0.9,0.4-1.8,0.9-2.8,0.5
		c-1.5-5.9,0.7-10.1,5.6-13.5c4.8-3.3,9.4-6.8,14.9-8.6C87.5,0,90.4-0.9,93.2,0.9z"/>
	<path class="st7" d="M29.1,1.1c0.4,3.1-1.8,1.7-3.2,1.8c-2.2,0.2-5-1.2-5.1,3.3C20.6,9,16.6,9.5,14.3,11c-2.4,3.1-6.1,4.1-9.3,5.9
		c-1.5,0.5-2.8,1.8-4.6,1c-0.4-6-0.5-12,0-17.9c8.8-1.1,17.7-0.2,26.6-0.5C28-0.5,28.8,0.1,29.1,1.1z"/>
	<path class="st8" d="M32.2,86.9c7.8-0.7,14.3,1.8,19.4,7.8c1.5,1.8,2.8,3.7,2.7,6.2c-0.4,4.2-1.2,8-6.8,7.5
		c-2.6,0.5-4.8-2.2-7.5-0.9c-0.6,0.6-1.1,1.3-1.9,1.7c-3.3-0.3-4.3-3.1-5.9-5.3C32.2,98.2,32.2,92.5,32.2,86.9z"/>
	<path class="st9" d="M27.3,25.9c3.6,3.3,1.9,7.1,1,10.9c-9.4-2.5-18.7-0.9-28,1.1c0-2.3-0.1-4.6-0.1-7c1.5-3,4.6-3.6,7.4-4.3
		C14.1,25,20.6,22.9,27.3,25.9z"/>
	<path class="st10" d="M93.2,0.9C81.4,1,73.1,8,65.3,15.6c-2,1.9-0.8,4.7-0.9,7.1c0.5,0.8,0.4,1.5,0,2.3c0,15.6,0,31.1,0,46.7
		c0.4,0.6,0.8,1.2,0.9,1.9c0.3,2.2,0.2,4.5,0.2,6.7c0,2,0.7,3.4,2.8,3.8c0.7,0.3,1.2,0.8,0.9,1.7c-4.2,0.9-5.2,3.5-5,7.5
		c0.3,8.8,0.2,17.5,0.2,26.3c0.3,0.4,0.5,0.9,0.7,1.3c0.3,1.3,0.2,2.5-0.9,3.5c-1.3-1-0.7-2.4-0.7-3.7c0-39.1,0-78.1,0-117.2
		c0-1.3-0.4-2.7,0.7-3.8c2.4,2.8,1.1,6.2,1.2,9.5c4.8-2.6,8.7-6.2,13.4-8.2C74,0.7,68.9,2.7,64.2-0.1C73.6-1.8,83-0.7,92.4-0.6
		C93.1-0.6,93.2,0.3,93.2,0.9z"/>
	<path class="st11" d="M61.3,65.9c0,5,0,10.1,0,15.1c-2,0.6-1.6-2.2-3.1-2.2c-0.6,1.1-1.3,2.1-2,3.2l0,0c-4.8,3.5-5.8,3.4-9.4-0.5
		c-2.7-5,1.5-6.4,4.4-8.5l0,0c0.3-0.8,3.6-0.6,0.8-2.4c-0.5-0.3-1.2-0.6-1.8-0.9c-2.5-1.3-4.3-3-3.6-6.2c0.5-2.2,1.6-3.7,3.8-3.9
		c3.1-0.3,6,0,7.5,3.4c0.7,1.5,1.6,2.9,1.1,4.7C59.8,66.9,59.7,65.2,61.3,65.9z"/>
	<path class="st7" d="M29.1,14.1c-0.3,3.6,1.1,7.3-0.8,10.7c-8.6-0.4-17,0.4-25.1,3.7c-0.9,0.4-1.9,0.7-2.9,0.3c0-1.7,0-3.3,0-5
		c2.1-3.6,6.1-4.4,9.5-6c4.5-2.1,9.3-3.5,14.3-4.5C25.8,13.1,27.6,12.3,29.1,14.1z"/>
	<path class="st12" d="M64.4,25c0-0.8,0-1.5,0-2.3c9-5,18.4-8.7,28.8-8.8c0,4.3,0,8.6,0,13c-1.8,1-3.2,0.1-4.5-1
		C80.8,19,72.7,20.4,64.4,25z"/>
	<path class="st13" d="M50.3,0.9c-0.6,10.1-7.5,14.7-18,12c0-1.3,0-2.6,0-3.9c1.7-5.2,4.9-8.7,10.8-9C45.4,0.2,48-0.8,50.3,0.9z"/>
	<path class="st14" d="M11.2,124.8c-0.6-1.4-3.1-2.4,0.3-4.2c1.9-1,1.9-4.7,1.7-7.4c-0.2-2.9,0.8-3.5,3.4-2.2c3.9,1.9,6.4,5,8.2,8.9
		c0.7,1.7,1.6,3.2,2.4,4.9C21.9,124.8,16.6,124.8,11.2,124.8z"/>
	<path class="st14" d="M0.3,99.9c8.5,2.8,12,8.2,10.5,15.2c-0.8,3.7-2.2,4.4-5.2,2.4c-1.8-1.2-3.5-2.4-5.3-3.6
		C0.3,109.2,0.3,104.5,0.3,99.9z"/>
	<path class="st15" d="M125.2,44.9c-3.5,2.5-5.3,0.3-6.6-2.6c-0.9-2.1-1.5-4.4-1.4-6.8c0.5-6.7,2.3-7.8,7.9-4.7
		C125.2,35.6,125.2,40.3,125.2,44.9z"/>
	<path class="st16" d="M93.2,110.9c0.1,1.5,0.2,3,0.2,4.5c0.1,10.1,0.1,10.1-10.1,9.3c-2.1-1-4.2-1.9-5.3-4.2
		c2.2-2.5,5.9-2.4,8.3-4.7l0,0C88.9,114.8,89.8,111.1,93.2,110.9z"/>
	<path class="st17" d="M61.4,9.9c-2.3,0.2-4.5-0.2-6.8-1.2c-2.5-1.1-3.3-2.5-2.2-5c1-2.2,1.2-4-2.1-3.7c-2.7,0.8-5.4,0.2-8.2,0.4
		c-3.3,0-6.7,2.3-9.8-0.5C38.6-2,45.1-0.8,51.4-0.9C62-1,62-0.8,61.4,9.9z"/>
	<path class="st5" d="M125.2,64.9c-1.8-0.6-3.2,2.8-5.3,0.4c-2.1-2.6-2.5-9.7-0.4-12.8c1.5-2.2,3.4-4.1,5.7-5.5
		C125.2,52.9,125.2,58.9,125.2,64.9z"/>
	<path class="st18" d="M61.3,25.9c-6.6-1.5-8.1-7.6-11.1-12.4c-0.8-1.3,0.4-1.7,0.6-2.6c0.3-1.4,1.2-0.6,1.8-0.2
		c2.7,1.7,5.8,1.2,8.7,1.3C61.3,16.6,61.3,21.3,61.3,25.9z"/>
	<path class="st11" d="M32.2,103.8c2,1.7,4,3.3,6,5c4.5-0.1,9.2,2.1,13.6-0.7c1.2-0.4,2.4-1.1,3.7-0.2c-1.3,5.3-2.6,10.6-7.3,14.2
		c-2.6-6-6.5-10.2-13.6-10.4c-1,0-1.6-1.1-2.4-1.7C32.2,107.9,32.2,105.9,32.2,103.8z"/>
	<path class="st14" d="M0.2,78.9C6,81.8,8.6,93.1,4.7,97.7c-1.6,1.8-3,0-4.5,0.2C0.2,91.5,0.2,85.2,0.2,78.9z"/>
	<path class="st19" d="M0.3,17.9c1.3-0.7,2.6-1.3,4-2c4.2,0,6.9-4,11-4c3.4-0.1,6.3-1.8,9.3-3.1c1.5-0.6,2.3-3.3,4-2.2
		c1.5,1,0.5,3.4,0.6,5.1c-1.1,1.5-2.9,1.6-4.4,1.9c-7.2,1.2-13.8,3.9-20.3,7.1c-1.3,0.6-2.5,1.6-4.1,1.1C0.3,20.6,0.3,19.3,0.3,17.9
		z"/>
	<path class="st11" d="M46.2,124.7c-1.3,0-2.6,0-4,0c-0.4-0.6,0,0.2-0.3-0.3c-3.5-5.7-3.5-5.7-9.7-5.5c0-2.3,0-4.7,0-7
		c8.3-1.6,12.7,1.1,15.4,9.4C48,122.8,47.3,123.8,46.2,124.7z"/>
	<path class="st20" d="M32.2,15.9c2.5,0.4,6.6-1.2,7.2,1c0.9,3.5-2,6.6-5,8.9c-0.7,0.5-1.5,0.8-2.2,1.1
		C32.2,23.3,32.2,19.6,32.2,15.9z"/>
	<path class="st21" d="M61.3,65.9c-0.8,1.4-1.6,2.7-2.7,4.7c-0.4-2.6-0.4-4.7-1-6.6c-0.9-2.9-3.3-4-6.2-4c-2.3,0-3.7,1.3-4.1,3.5
		c-0.5,3,1.2,4.6,3.7,5.7c1.9,0.8,3.8,1.6,6.2,2.6c-2.1,1.6-4.1,0.8-6,1c1.2-2.3-1-2.3-2-3c-2.2-1.4-4-3.1-3.4-6
		c0.5-2.3,1.3-4.7,4.2-4.9c2.9-0.2,6-0.8,8,2.4c0.7,1.2,0.6,3.7,3.2,2.5C61.3,64.6,61.3,65.2,61.3,65.9z"/>
	<path class="st22" d="M64.2,124.6c0.1-1.2,0.1-2.4,0.2-3.6c4.3-1.2,8.6-1,12.9,0.1c1.7,0.4,4,1,3.9,3.7
		C75.6,125,69.9,125.3,64.2,124.6z"/>
	<path class="st23" d="M0.3,21.9c9-5,18.6-8.5,28.8-10.2c0,0.8,0,1.6,0,2.4c-10.5,0.6-19.7,5.1-28.8,9.8C0.3,23.3,0.3,22.6,0.3,21.9
		z"/>
	<path class="st24" d="M0.3,28.9c7.7-3,15.4-5.5,23.8-5c1.4,0.1,3-0.4,4.1,1c-0.3,0.3-0.7,0.7-1,1c-9.4-0.5-18.5,0.6-27,5
		C0.3,30.2,0.3,29.6,0.3,28.9z"/>
	<path class="st25" d="M0.3,37.9c9.2-3.5,18.5-4.7,28-1.1c-0.1,0.5-0.1,0.9-0.2,1.4c-9.5-3.7-18.7-1.8-27.8,1.7
		C0.3,39.2,0.3,38.6,0.3,37.9z"/>
	<path class="st26" d="M40.2,124.7c-1.2,0.1-2.3,0-3.5,0.2c-4,0.5-5.6-1-4.5-5c2.3-1.6,4.7-2.9,7.2-0.9
		C41.3,120.5,41.6,122.6,40.2,124.7z"/>
	<path class="st27" d="M32.3-0.1c3.3,0,6.6,0.1,9.9,0.1c0.4,0.2,0.5,0.4,0.4,0.6s-0.2,0.3-0.3,0.3c-4.9,0.8-7.2,4.7-10,8
		C31.9,6,31.7,3,32.3-0.1z"/>
	<path class="st28" d="M46.2,124.7c0.3-1,0.7-1.9,1-2.9c0.3-0.5,0.7-0.5,1,0c2.9-4.4,5.3-9,7-14c0.9-0.2,1.4-0.1,1,1
		c-1.2,5.8-4.4,10.7-7,15.8C48.3,124.7,47.3,124.7,46.2,124.7z"/>
	<path class="st29" d="M29.1,1.1C27.5-0.4,25.4,0,23.5,0C15.8,0,8.1,0,0.3,0c2.5-1.9,5.4-0.9,8-0.8c7,0.3,14-1.2,20.9,0.8
		C29.2,0.3,29.2,0.8,29.1,1.1z"/>
	<path class="st30" d="M48.3,121.8c-0.3,0-0.7,0-1,0c-3.4-8.5-5.5-9.9-15-10c0-0.7,0-1.3,0-2c1.6,0.3,3.2,0.8,4.8,0.9
		C43.9,111.7,46.9,114.6,48.3,121.8z"/>
	<path class="st31" d="M93.2,94.9c0,1.3,0,2.7,0,4c-1.1,1.5-2.1,3.3-4.3,1.9c-1.2-0.8-2.7-2-1.9-3.6C88.3,94.6,90.4,93.6,93.2,94.9z
		"/>
	<path class="st32" d="M81.2,124.7c-4.8-5.1-10.9-3.8-16.8-3.7c0-0.4,0-0.9,0-1.3c3.6,0,7.2,0.1,10.8,0.1c1.4-0.9,2.3-0.1,3.1,1
		c2.4,0.3,3.7,2.1,4.9,3.9C82.6,124.7,81.9,124.7,81.2,124.7z"/>
	<path class="st33" d="M93.2,94.9c-0.5,0-1,0-1.5,0c-1.8-0.1-3.2,0.7-4,2.3c-0.7,1.3,0.4,2.1,1.2,2.8c1.9,1.6,2.8-0.8,4.2-1.2
		c0,0.7,0,1.3,0,2c-2,1.1-3.9,1.6-5.8-0.3c-1.1-1.2-1.6-2.5-0.9-4c1.3-3.1,4.1-2.8,6.7-2.7C93.2,94.2,93.2,94.6,93.2,94.9z"/>
	<path class="st34" d="M40.2,124.7c-0.1-6.3-0.9-6.8-8-4.9c0-0.3,0-0.7,0-1c6.7-3.3,8.5-2.2,10,5.9
		C41.6,124.7,40.9,124.7,40.2,124.7z"/>
	<path class="st35" d="M56.2,81.9c0.5-2.2,1-4.3,1.7-7.2c1.8,2.3,1.3,5.1,3.4,6.3c0,0.7-0.1,1.3-0.1,1.9
		C59.7,81.9,58.5,79.3,56.2,81.9z"/>
	<path class="st25" d="M0.3,118.8c3.5,0.5,5.4,2.5,6,5.9c-0.7,0-1.4,0-2,0c-1.2-1.1-3-1.5-4-2.9C0.3,120.8,0.3,119.8,0.3,118.8z"/>
	<path class="st36" d="M0.3,48.9c2.7,0.2,5.4-0.2,8.1-0.6c-2.3,2.1-5.3,2-8,2.6C0.3,50.2,0.3,49.6,0.3,48.9z"/>
	<path class="st37" d="M93.2,110.9c-2.6,1.2-3.6,4.7-6.9,5c1.9-2.8,4.3-5,7-7C93.2,109.5,93.2,110.2,93.2,110.9z"/>
	<path class="st38" d="M0.3,121.8c1.8,0.3,3.7,0.6,4,2.9C2.1,124.9-0.6,125.8,0.3,121.8z"/>
	<path class="st15" d="M117.2,47.9c-5.3,0.5-10.2-0.3-14-4.5c-4.1-4.6-5.2-9.9-3.3-15.7c0.5-1.5,1.4-2.6,3.2-2.8
		c3.4-0.3,6.5,0.6,9.5,2.1c3.7,1.9,3,4.9,2.6,8c-0.4,3,0,6,1,8.8c0.5,0.8,0,1.1-0.7,1.3c-1-0.3-1.5-1.2-2.1-2c0,0-0.3,0.3-0.3,0.3
		s0.3,0.1,0.4,0.2c0.6,0.7,1.1,1.4,1.9,1.9C116.4,46.1,117.1,46.8,117.2,47.9z"/>
	<path class="st15" d="M114.2,60.1c1.6-0.2,1.6,1,2.1,2.1c1.1,2.5,0.5,5.9,4.1,7.3c1.7,0.7,0,2.1-0.5,2.8c-2.7,3.5-6.6,5.4-10.8,6.4
		c-1.2,0.3-2.2,0.1-2.8-1.3c-1.8-4.6,2.4-14.7,7-16.9C113.6,60.3,113.9,60.2,114.2,60.1z"/>
	<path class="st39" d="M114.1,57.9c-1.5-1.7-2.9-1-4.4,0c-0.8,0.5-1.9,1.3-2.2-0.3c-0.3-1.3,0.9-1.5,1.9-1.6c2-0.3,3.9-0.7,5.8-1
		C116.1,56.4,115.8,57.4,114.1,57.9z"/>
	<path class="st40" d="M117.2,47.9c-0.7-0.7-1.3-1.3-2-1.9c-0.3-0.2-0.4-0.5-0.3-0.7s0.2-0.3,0.3-0.3c0.3-0.3,0.7-0.7,1-1
		c0.8,1,1.7,2,2.4,3c0.3,0.5,1.7,1,0.3,1.7C118.6,48.7,117.8,48.1,117.2,47.9z"/>
	<path class="st41" d="M64.4,74c0-0.8,0-1.6,0-2.3c3.9,0.3,7.1,1.4,8.2,5.8c0.9,3.6-0.1,6.4-3.3,8.4c-0.3-0.3-0.7-0.7-1-1
		C69.9,80.2,69.3,76.4,64.4,74z"/>
	<path class="st37" d="M78.3,120.8c-1-0.3-2.1-0.7-3.1-1c3.7-1.3,7.4-2.7,11-4C84.5,119,80.7,118.8,78.3,120.8z"/>
	<path class="st13" d="M42.3,23c0.3,0.8,0.8,1.6,1.7,1.4c0.9-0.3,0.7-1.2,0.6-2c-0.2-2.5-1.1-5,0.7-7.3c2.3,1.5,2,4.3,3.6,6.7
		c-1.3-2.5-1.8-4.6-2.6-6.7c0.4-0.2,1-0.7,1.2-0.6c7.9,6.5,7.6,22.3-0.5,28.4c-0.3,0.2-0.5,0.6-0.8,0.6c-5.2,0.9-7.3-3.2-9.6-6.3
		c-1.8-2.4-5.5-5.2-1.2-8.8c2.4-2,4.8-4.2,6-7.2C43.1,20.9,42.9,21.8,42.3,23z"/>
	<path class="st42" d="M56.3,108.9c-0.3-0.3-0.7-0.7-1-1c-1,0.3-2,0.7-3,1c-0.9,0-1.8,0-2.6,0.1c-0.9-0.1-1.8-0.3-2.4-1.1
		c4.4-0.3,5.7-3.6,7-7c0,1.8-0.2,3.6,1.6,5.2c1.4-3,2-6.1,2.5-9.2c0.3-0.4,0.6-0.4,1,0C59,101.1,58,105.1,56.3,108.9z"/>
	<path class="st28" d="M47.2,80.9c2.6,4.4,5.8,2.2,9,1c-4.1,4.7-7.5,4.3-10-1C46.6,80.5,46.9,80.5,47.2,80.9z"/>
	<path class="st43" d="M46.2,14.9c2.2,2.7,3.2,5.7,2.7,9.3c-1.2-3.1-2.5-6.2-3.7-9.3C45.6,14.9,45.9,14.9,46.2,14.9z"/>
	<path class="st21" d="M47.2,80.9h-0.5h-0.5c-1.5-4.5-0.5-6.2,5-8C49.8,75.5,44.8,76.3,47.2,80.9z"/>
	<path class="st44" d="M59.2,96.9c-0.3,0-0.6,0-1,0c0.5-3.7,0.9-7.3,1.4-11C60.5,89.6,60.5,93.3,59.2,96.9z"/>
	<path class="st42" d="M42.3,23c0-0.8-0.2-1.6-1-2c0.5-1.3,0.9-2.6,1.8-5.1C43.1,19,44,21.1,42.3,23z"/>
	<path class="st45" d="M42.2,0.9c0-0.3,0-0.6,0-0.9c2.7,0,5.4,0,8.1,0c0,0.3-0.1,0.6-0.1,0.9C47.6,0.9,44.9,0.9,42.2,0.9z"/>
	<path class="st14" d="M24.3,81.8c0,8.9-5.5,15.8-13.4,17.1c-1.6,0.3-4.2,0.3-2.8-3c1.9-4.8,1.4-9.4-1.2-13.8c-1.2-2-0.1-3.6,1-5
		c0.6-0.8,1.5-1.2,2.4-1.8c2.9-1.9,5.9-4.8,9.5-2.9C23.6,74.4,23.9,78.8,24.3,81.8z"/>
	<path class="st46" d="M12.3,105.9c2.3-0.2,4.6,0.4,6.8-0.5c1-0.4,2.2-0.5,2.5,0.7c0.3,1.6-1.1,1.6-2.3,1.8c-2.3-0.5-4.7-0.1-7-1
		C12.3,106.6,12.3,106.2,12.3,105.9z"/>
	<path class="st24" d="M12.3,106.9c2.3,0.3,4.9-1,7,1c-0.3,0.3-0.7,0.7-1,1C16.3,108.2,14,108.3,12.3,106.9z"/>
	<path class="st29" d="M25.3,52.9c0.3,0,0.7,0,1,0c1.6-0.3,2.2,0.4,2,2c0,0.3,0,0.7,0,1C26.9,55.3,25.9,54.3,25.3,52.9z"/>
	<path class="st47" d="M15.3,12c-3.7,1.2-6.6,4.8-11,4c3.3-1.6,6.7-3.3,10-5C14.6,11.3,15,11.6,15.3,12z"/>
	<path class="st48" d="M28.3,54.8c-0.6-0.7-1.3-1.3-2-2c0.2-1.4,0.9-2.5,2.2-1.5C29.7,52.3,29.4,53.8,28.3,54.8z"/>
	<path class="st3" d="M18,101.6c0.8-1.1,1.6-2.2,3-2c0.2,0,0.7,0.9,0.5,1.1C20.8,102.1,19.5,102,18,101.6z"/>
	<path class="st49" d="M36.3,98.9c0.3-1.8,4.4-0.8,2.8-4.1c-0.5-1.1,1-1.1,1.7-0.8c2.4,0.9,4.9,1.7,7,3.1c1.6,1.1,4.1,2.9,2.2,5
		c-1.5,1.7-4.2,3.8-6.7,0.7c0.3-0.4,0.7-0.7,1-1.1c-0.4,0.3-0.7,0.7-0.9,1.1c-2.6,0.2-3.4-3.2-6-3C36.7,99.8,36.4,99.4,36.3,98.9z"
		/>
	<path class="st50" d="M47.3,107.9c1,0,2,0,3,0c-2.5,4.1-8.1,3.6-11-1c0.1-1.4,0.7-2,2.2-1.4C43.4,106.3,45.3,107.1,47.3,107.9z"/>
	<path class="st51" d="M39.3,106.9c4.2,3.8,7.2,4.1,11,1c0.8,0,1.6,0.2,2,1c-4.7,3.5-9.3,2.4-14,0C38.3,108,38.5,107.3,39.3,106.9z"
		/>
	<path class="st52" d="M36.3,98.9c0.3,0.3,0.7,0.7,1,1c0,0.6,0.2,1.6,0.1,1.6c-1.1,0.3-1.7-0.6-2.2-1.3C34.5,99,35.5,99,36.3,98.9z"
		/>
	<path class="st53" d="M64.2-0.2c5.6,0,11.2,0,18.4,0c-6.7,4.3-12.1,7.9-18.5,12C64.2,7.4,64.2,3.6,64.2-0.2
		C64.2-0.1,64.2-0.2,64.2-0.2z"/>
	<path class="st54" d="M64.4,74c6.5,1.2,7.8,4.9,3.8,10.8c-2.8,1-4.4,0.7-4-2.9C64.5,79.4,64.3,76.7,64.4,74z"/>
	<path class="st55" d="M54,13.4c2.5,1.5,4.4,1,4.8,2.8c0.1,0.4-0.7,1.3-1.1,1.3C55.9,17.4,55.7,15.7,54,13.4z"/>
	<path class="st56" d="M113.2,44c-1.2-0.3-2.9-0.2-2.2-2.1c0.4-1,1.4-1,2.2,0C113.8,42.6,113.8,43.3,113.2,44z"/>
	<path class="st57" d="M113.2,44c0-0.7,0-1.4,0-2.1c0.7,1,1.3,2,2,3c0,0.4,0,0.7,0,1.1C114.6,45.3,113.9,44.7,113.2,44z"/>
	<path class="st58" d="M12.3,94.2c-1,0.1-0.9-0.7-1-1.3c0-0.9,0.3-1.7,1.3-1.8c1-0.1,1.5,0.5,1.4,1.6C13.9,93.6,13.1,93.9,12.3,94.2
		z"/>
	<path class="st8" d="M43.3,102.9c-1.1-2.2,0.6-2.4,2-2.7c0.3-0.1,1.2,0.4,1.2,0.6C46.2,102.7,44.6,102.6,43.3,102.9
		C43.2,102.9,43.3,102.9,43.3,102.9z"/>
</g>
<g>
	<path class="st15" d="M185.2,62.1c0-0.8-0.1-1.3-0.2-1.6c-0.2-0.3-0.4-0.5-0.8-0.8l-3.5-2.3c0-0.4,0.2-1,0.5-1.8
		c0.3-0.7,0.7-1.1,1.1-1.1c0.5,0,1.2,0,2.1,0.1c0.9,0.1,1.9,0.2,2.8,0.3c1,0.1,1.8,0.3,2.7,0.5c0.8,0.2,1.4,0.3,1.7,0.4
		c0.8,0.3,1.2,0.8,1.2,1.7c0,0.4-0.1,1.1-0.2,1.8c-0.1,0.8-0.2,1.6-0.2,2.5L192.3,81h20.8c1.7,0,3.4-0.2,4.9-0.7
		c1.5-0.5,2.7-0.7,3.5-0.7c0.6,0,1.3,0.1,2.2,0.2c0.8,0.1,1.7,0.2,2.5,0.4c0.8,0.2,1.5,0.3,2.1,0.5c0.6,0.2,1,0.4,1.1,0.6
		c0.2,0.3,0.3,0.7,0.4,1.2c0.1,0.5,0.1,0.9,0,1.4c-0.1,0.5-0.1,0.9-0.2,1.4c-0.1,0.4-0.2,0.8-0.4,1h-55c-0.6,0-1.3,0.1-2.2,0.2
		c-0.9,0.1-1.7,0.3-2.5,0.5s-1.5,0.3-2.2,0.5c-0.6,0.1-1.1,0.2-1.3,0.2c-0.4,0-1.1-0.1-1.9-0.4c-0.8-0.2-1.8-0.6-2.8-1
		c-1-0.4-2-0.8-3-1.3c-1-0.4-1.9-0.9-2.6-1.3c0-0.6,0.1-1.3,0.3-2.1c0.2-0.8,0.5-1.2,1-1.2c0.4,0,1.2,0,2.4,0.1
		c1.2,0.1,2.6,0.2,4.2,0.3c1.6,0.1,3.3,0.2,5.2,0.3c1.9,0.1,3.7,0.1,5.4,0.1h11V62.1z M205.4,70.5c0.5-1.8,1.1-4.1,1.8-6.9
		c0.7-2.8,1.3-5.8,1.8-9c0.5-3.2,1-6.4,1.4-9.6c0.4-3.3,0.6-6.3,0.7-9.1h-27.5c-1.8,0-3.3,0.2-4.5,0.6c-1.2,0.4-2.2,0.6-3.1,0.6
		c-0.5,0-1.3-0.2-2.4-0.5c-1-0.3-2.1-0.7-3.1-1.1c-1-0.4-2-0.8-2.8-1.2c-0.8-0.4-1.3-0.6-1.5-0.7c0-0.2,0-0.4,0.1-0.8
		c0.1-0.4,0.1-0.8,0.2-1.1c0.1-0.4,0.2-0.7,0.3-1c0.1-0.3,0.3-0.5,0.5-0.5c0.3,0,1,0,2.2,0.1c1.2,0.1,2.6,0.2,4.2,0.2
		c1.6,0.1,3.3,0.2,5,0.2c1.7,0.1,3.4,0.1,4.8,0.1h22.7c0.6,0,1.2,0,1.9-0.1c0.7-0.1,1.3-0.2,1.9-0.3c0.6-0.1,1.1-0.2,1.6-0.3
		c0.5-0.1,0.8-0.1,1-0.1c0.4,0,0.9,0,1.4,0.1c0.5,0.1,1,0.1,1.6,0.2c0.5,0.1,1,0.2,1.4,0.2c0.4,0.1,0.8,0.2,1,0.2
		c0.6,0.1,1,0.4,1.2,0.8c0.2,0.4,0.3,0.8,0.3,1c-0.1,2.6-0.4,5.6-0.9,9.1c-0.5,3.5-1.2,7-2,10.6c-0.8,3.6-1.7,6.9-2.7,10.1
		c-1,3.1-2,5.6-3,7.5c-0.2,0.3-0.5,0.5-1,0.6c-0.5,0.1-1.1,0.2-1.7,0.3c-0.6,0.1-1.2,0.1-1.8,0C206.1,70.6,205.7,70.5,205.4,70.5z"
		/>
	<path class="st15" d="M251.6,67.7c-0.9,0.1-1.7,0.3-2.5,0.5s-1.5,0.3-2.2,0.5c-0.6,0.1-1.1,0.2-1.3,0.2c-0.4,0-1.1-0.1-1.9-0.4
		c-0.8-0.2-1.8-0.6-2.8-0.9c-1-0.4-2-0.8-3-1.2c-1-0.4-1.9-0.9-2.6-1.3c0-0.6,0.1-1.3,0.3-2c0.2-0.8,0.5-1.1,1-1.1
		c0.4,0,1.2,0,2.4,0.1c1.2,0.1,2.6,0.2,4.2,0.3c1.6,0.1,3.3,0.2,5.2,0.3c1.9,0.1,3.7,0.1,5.4,0.1h38.9c1.7,0,3.4-0.3,4.9-0.8
		c1.5-0.5,2.7-0.8,3.5-0.8c0.6,0,1.3,0.1,2.2,0.2c0.8,0.1,1.7,0.2,2.5,0.4c0.8,0.2,1.5,0.4,2.1,0.6c0.6,0.2,1,0.4,1.1,0.7
		c0.4,0.6,0.5,1.4,0.4,2.5c-0.1,1-0.3,1.8-0.7,2.2h-30.4v8c0,1.7-0.3,3.4-0.8,5c-0.5,1.6-1.1,2.8-1.7,3.4h-3.4
		c-0.4-0.6-0.7-1.6-1.1-3c-0.3-1.4-0.5-2.9-0.5-4.3v-9h-17.1C253.2,67.5,252.4,67.6,251.6,67.7z M253.9,96.1
		c-1.4-1.3-2.2-3.1-2.2-5.4v-9.3c0-0.4,0-0.7-0.1-0.9s-0.2-0.3-0.5-0.4l-3-1.8c0-0.4,0.1-1,0.5-1.8c0.3-0.7,0.6-1.1,1-1.1
		c1.1,0,2.5,0,4,0.1c1.5,0.1,2.7,0.2,3.5,0.3c0.7,0.1,1.2,0.3,1.8,0.5c0.5,0.2,0.8,0.7,0.8,1.4c0,0.2,0,0.6,0,1.2c0,0.6,0,1,0,1.4
		v10c0,0.9,0.3,1.6,0.8,2.1c0.5,0.4,1.4,0.7,2.7,0.7h19.4c0.8,0,1.7-0.1,2.5-0.2c0.8-0.2,1.7-0.3,2.4-0.5c0.8-0.2,1.5-0.4,2.1-0.5
		c0.6-0.2,1.2-0.2,1.6-0.2c0.6,0,1.3,0,2,0.1c0.7,0.1,1.4,0.1,2.1,0.2c0.7,0.1,1.3,0.2,1.8,0.4c0.5,0.2,0.9,0.4,1,0.6
		c0.2,0.2,0.3,0.6,0.4,1c0.1,0.5,0.1,1,0.1,1.5c0,0.5-0.1,1.1-0.2,1.6c-0.1,0.5-0.3,0.9-0.6,1.1l-37.3,0.1
		C257.5,98.1,255.3,97.4,253.9,96.1z M264.4,55.2c-2.4-0.8-4.4-1.8-6.1-3.2c-1.7-1.4-3-3-3.9-5c-0.9-1.9-1.4-4-1.4-6.3
		s0.5-4.4,1.4-6.3c0.9-1.9,2.2-3.6,3.9-5c1.7-1.4,3.7-2.5,6.1-3.2c2.4-0.8,5-1.1,7.9-1.1c2.9,0,5.5,0.4,7.9,1.1
		c2.4,0.8,4.4,1.8,6.1,3.2c1.7,1.4,3,3,3.9,5c0.9,1.9,1.4,4,1.4,6.3s-0.5,4.4-1.4,6.3c-0.9,1.9-2.2,3.6-3.9,5
		c-1.7,1.4-3.7,2.5-6.1,3.2c-2.4,0.8-5,1.1-7.9,1.1C269.4,56.4,266.8,56,264.4,55.2z M277.2,50c1.5-0.5,2.8-1.2,3.9-2.1
		c1.1-0.9,1.9-1.9,2.5-3.2c0.6-1.3,0.9-2.6,0.9-4.1c0-3.1-1.1-5.5-3.4-7.4c-2.3-1.9-5.2-2.8-8.7-2.8c-3.5,0-6.4,0.9-8.7,2.8
		c-2.3,1.9-3.4,4.3-3.4,7.4c0,1.5,0.3,2.8,0.9,4.1c0.6,1.3,1.4,2.3,2.5,3.2c1.1,0.9,2.3,1.6,3.8,2.1c1.5,0.5,3.1,0.7,4.8,0.7
		C274.1,50.8,275.7,50.5,277.2,50z"/>
	<path class="st15" d="M331.1,69.4c-0.9,0.1-1.7,0.3-2.5,0.5s-1.5,0.3-2.2,0.5c-0.6,0.1-1.1,0.2-1.3,0.2c-0.4,0-1.1-0.1-1.9-0.4
		c-0.8-0.2-1.8-0.6-2.8-0.9c-1-0.4-2-0.8-3-1.2c-1-0.4-1.9-0.9-2.6-1.3c0-0.6,0.1-1.3,0.3-2.1c0.2-0.8,0.5-1.2,1-1.2
		c0.4,0,1.2,0,2.4,0.1c1.2,0.1,2.6,0.2,4.2,0.3c1.6,0.1,3.3,0.2,5.2,0.3c1.9,0.1,3.7,0.1,5.4,0.1h38.9c1.7,0,3.4-0.3,4.9-0.8
		c1.5-0.5,2.7-0.8,3.5-0.8c0.6,0,1.3,0.1,2.2,0.2c0.8,0.1,1.7,0.2,2.5,0.4c0.8,0.2,1.5,0.4,2.1,0.6c0.6,0.2,1,0.4,1.1,0.7
		c0.2,0.3,0.3,0.7,0.4,1.1c0.1,0.4,0.1,0.9,0,1.4c-0.1,0.5-0.1,0.9-0.2,1.4c-0.1,0.4-0.2,0.7-0.4,0.9h-32l-0.1,18.7
		c0,1.1-0.1,2.3-0.2,3.5c-0.1,1.3-0.3,2.5-0.6,3.7s-0.5,2.3-0.8,3.2c-0.3,1-0.6,1.6-0.9,2h-3.4c-0.4-0.8-0.8-2.1-1.1-4
		c-0.3-1.9-0.5-3.9-0.5-6.1V69.1h-15.5C332.7,69.1,332,69.2,331.1,69.4z M329.7,45.9V33.1c0-0.5-0.2-1-0.7-1.2l-4-2.4
		c0-0.3,0.1-0.6,0.2-1c0.1-0.4,0.2-0.7,0.4-1.1c0.1-0.3,0.3-0.6,0.5-0.8c0.2-0.2,0.4-0.3,0.6-0.3c0.5,0,1.2,0,2,0.1
		c0.8,0.1,1.6,0.2,2.5,0.3c0.9,0.1,1.7,0.2,2.5,0.4c0.8,0.1,1.4,0.3,1.9,0.4c0.6,0.2,1.1,0.4,1.4,0.6c0.3,0.2,0.5,0.7,0.5,1.3
		c0,0.3,0,0.8,0,1.4c0,0.6,0,1.2,0,1.6v13.1c0,1.1,0.2,1.9,0.7,2.4c0.5,0.5,1.3,0.7,2.6,0.7h20.9c0.8,0,1.7-0.1,2.6-0.2
		c0.9-0.1,1.8-0.3,2.7-0.5c0.9-0.2,1.7-0.4,2.4-0.5c0.7-0.1,1.3-0.2,1.7-0.2c0.6,0,1.2,0,1.9,0.1c0.7,0.1,1.3,0.1,2,0.2
		c0.6,0.1,1.2,0.2,1.6,0.3c0.5,0.1,0.8,0.3,0.9,0.5c0.2,0.2,0.3,0.6,0.4,1.1s0.1,1,0.1,1.6c0,0.5-0.1,1.1-0.2,1.6
		c-0.1,0.5-0.3,0.8-0.6,1.1l-39.5,0.1C332.2,53.7,329.6,51.1,329.7,45.9z"/>
	<path class="st15" d="M451.8,98.5c-0.2-0.8-0.4-1.7-0.5-2.7c-0.1-1-0.2-2.1-0.3-3.2c-0.1-1.1-0.1-2.3-0.1-3.4V72.1
		c-2,0.7-4.3,1.3-6.8,2c-2.5,0.7-5.2,1.3-7.9,1.9c-2.7,0.6-5.4,1.2-8.1,1.7c-2.7,0.5-5.1,1-7.4,1.3c-2.3,0.4-4.3,0.6-5.9,0.9
		c-1.7,0.2-2.9,0.3-3.6,0.3c-0.8,0-1.7-0.3-2.5-0.8c-0.9-0.5-1.7-1.2-2.4-1.8c-0.7-0.7-1.3-1.4-1.8-2.1c-0.5-0.7-0.7-1.2-0.7-1.6
		l-0.1-16.4c0-0.9-0.4-1.6-1.1-2.1c-0.7-0.5-1.3-0.9-1.7-1.1c0-0.1,0-0.3,0.1-0.7c0.1-0.3,0.2-0.7,0.3-1c0.1-0.4,0.3-0.7,0.5-0.9
		c0.2-0.3,0.3-0.4,0.5-0.4c0.3,0,0.9,0,1.8,0.1c0.8,0.1,1.7,0.1,2.7,0.1c0.9,0,1.8,0.1,2.7,0.1c0.9,0.1,1.5,0.1,2,0.1h16.6
		c0-0.7,0-1.7,0-3c0-1.3,0.1-2.6,0.1-4c0-1.4,0-2.7,0-4c0-1.3,0-2.3,0-3.1h-14.3c-1.1,0-2.1,0.1-3,0.3c-0.9,0.2-1.6,0.3-2.1,0.3
		c-0.4,0-0.9-0.1-1.6-0.3c-0.7-0.2-1.4-0.5-2.2-0.8c-0.8-0.3-1.5-0.7-2.3-1c-0.7-0.4-1.4-0.7-1.8-1c0.1-0.7,0.3-1.4,0.6-2.1
		c0.3-0.7,0.5-1.1,0.8-1.1c0.3,0,0.8,0,1.7,0.1c0.8,0.1,1.8,0.1,2.9,0.2c1.1,0.1,2.3,0.1,3.5,0.2c1.2,0.1,2.4,0.1,3.5,0.1h10.8
		c0.9,0,1.9-0.1,2.8-0.4c0.9-0.2,1.6-0.4,2-0.4c0.9,0,1.9,0.1,3,0.2c1.1,0.2,1.9,0.3,2.4,0.4c0.9,0.2,1.4,0.8,1.3,2.1
		c-0.1,0.5-0.2,1.7-0.3,3.4s-0.4,3.6-0.6,5.5c-0.2,1.9-0.4,3.8-0.7,5.5c-0.2,1.7-0.4,2.8-0.6,3.4c0.5,0.1,1,0.4,1.2,0.8
		c0.3,0.4,0.4,0.9,0.4,1.3c0,0.5-0.2,1.1-0.5,1.5c-0.3,0.5-0.8,0.7-1.5,0.7h-22.5v17.1c0.9,0.1,2.2,0,4-0.1c1.8-0.1,3.9-0.3,6.2-0.5
		c2.3-0.2,4.8-0.5,7.5-0.9c2.7-0.4,5.3-0.8,8-1.2c2.7-0.5,5.2-1,7.6-1.5c2.4-0.5,4.6-1.1,6.4-1.7V29.7c0-0.5-0.1-1-0.4-1.3
		c-0.2-0.3-0.5-0.6-0.8-0.9l-4.5-3.6c0.1-0.7,0.4-1.4,0.7-2c0.4-0.6,0.8-0.9,1.1-0.9c0.5,0,1.2,0.1,2.2,0.3c1,0.2,2,0.4,3,0.7
		c1.1,0.2,2.1,0.5,3,0.8c1,0.3,1.7,0.6,2.3,0.8c0.4,0.2,0.7,0.5,0.9,0.7s0.2,0.6,0.2,1c0,0.4,0,1.1-0.1,2.1c-0.1,1-0.1,1.8-0.1,2.4
		l-0.2,56.7c0,1.4-0.1,2.9-0.3,4.3c-0.2,1.4-0.4,2.8-0.7,4.1c-0.3,1.3-0.6,2.4-0.9,3.3c-0.3,1-0.7,1.7-1,2.1h-3
		C452.2,99.9,452,99.3,451.8,98.5z"/>
	<path class="st59" d="M479.7,42.6c-0.7-0.3-1.5-0.6-2.3-0.9c-0.8-0.4-1.5-0.7-2.3-1.1c-0.7-0.4-1.2-0.7-1.5-0.8
		c0-0.2,0-0.4,0.1-0.8c0.1-0.4,0.2-0.7,0.2-1.1c0.1-0.4,0.2-0.7,0.3-0.9c0.1-0.3,0.2-0.4,0.3-0.4c0.3,0,0.9,0,1.8,0.1s2,0.2,3.2,0.2
		c1.2,0.1,2.5,0.2,3.8,0.2c1.3,0.1,2.5,0.1,3.7,0.1h18.4c0.7,0,1.5-0.1,2.3-0.2c0.8-0.1,1.6-0.2,2.3-0.4c0.8-0.1,1.5-0.3,2.1-0.4
		c0.7-0.1,1.2-0.2,1.6-0.2c1.3,0.1,2.4,0.2,3.5,0.3c1.1,0.1,1.8,0.3,2.1,0.6c0.2,0.2,0.4,0.5,0.5,0.9c0.1,0.5,0.2,1,0.2,1.5
		c0,0.5-0.1,1-0.2,1.5c-0.1,0.5-0.3,0.8-0.5,1.1h-32.1c-0.9,0-1.9,0.2-3,0.5c-1.1,0.3-2,0.5-2.7,0.5C481,43,480.5,42.9,479.7,42.6z
		 M491.1,71.2c-2-0.7-3.8-1.6-5.2-2.8c-1.4-1.2-2.6-2.6-3.4-4.2c-0.8-1.6-1.2-3.4-1.2-5.3c0-1.9,0.4-3.7,1.2-5.3s1.9-3.1,3.4-4.3
		c1.4-1.2,3.2-2.1,5.2-2.8c2-0.7,4.3-1,6.8-1c2.5,0,4.8,0.3,6.8,1c2,0.7,3.8,1.6,5.2,2.8c1.4,1.2,2.6,2.6,3.4,4.3s1.2,3.4,1.2,5.3
		c0,1.9-0.4,3.7-1.2,5.3c-0.8,1.6-1.9,3-3.4,4.2c-1.4,1.2-3.2,2.1-5.2,2.8c-2.1,0.7-4.3,1-6.8,1C495.4,72.2,493.2,71.8,491.1,71.2z
		 M491.3,31.5c-0.7-0.3-1.4-0.6-2.1-1.1c-0.8-0.4-1.5-0.9-2.3-1.4c-0.8-0.5-1.5-1-2.1-1.5c0.1-0.4,0.2-1,0.4-1.7
		c0.2-0.7,0.5-1,0.7-1c0.2,0,0.7,0.1,1.5,0.2c0.8,0.1,1.6,0.3,2.6,0.4c1,0.1,2,0.3,3,0.4c1,0.1,1.8,0.2,2.4,0.2l12.6,0.6
		c0.2,0,0.4,0.2,0.6,0.6c0.2,0.4,0.3,0.8,0.3,1.4c0,0.5,0,1-0.2,1.5c-0.1,0.5-0.4,0.8-0.7,1.1c-1,0.1-2.2,0.2-3.5,0.3
		s-2.7,0.2-4,0.2c-1.4,0.1-2.7,0.2-4,0.2c-1.3,0.1-2.5,0.1-3.5,0.1C492.5,31.9,492,31.8,491.3,31.5z M505,64.8
		c1.8-1.5,2.7-3.5,2.7-5.9s-0.9-4.5-2.7-6c-1.8-1.5-4.1-2.3-7.1-2.3c-3,0-5.3,0.8-7.1,2.3c-1.8,1.5-2.6,3.5-2.6,6s0.9,4.4,2.6,5.9
		c1.7,1.5,4.1,2.3,7.1,2.3C500.8,67,503.2,66.3,505,64.8z M496.6,96.1c-1.4-1.3-2.2-3.1-2.2-5.4v-7.6c0-0.4,0-0.7-0.1-0.9
		c-0.1-0.2-0.2-0.3-0.5-0.4l-3-1.8c0-0.4,0.1-1,0.5-1.8c0.3-0.7,0.6-1.1,1-1.1c1.1,0,2.5,0,4,0.1c1.5,0.1,2.7,0.2,3.5,0.3
		c0.7,0.1,1.2,0.3,1.8,0.5c0.5,0.2,0.8,0.7,0.8,1.4c0,0.2,0,0.6,0,1.2c0,0.6,0,1,0,1.4v8.4c0,0.9,0.3,1.6,0.8,2.1
		c0.5,0.4,1.4,0.7,2.7,0.7h17c0.8,0,1.7-0.1,2.5-0.2c0.8-0.2,1.7-0.3,2.4-0.5c0.8-0.2,1.5-0.4,2.1-0.5c0.6-0.2,1.2-0.2,1.6-0.2
		c0.6,0,1.3,0,2,0.1c0.7,0.1,1.4,0.1,2.1,0.2c0.7,0.1,1.3,0.2,1.8,0.4c0.5,0.2,0.9,0.4,1,0.6c0.2,0.2,0.3,0.6,0.4,1
		c0.1,0.5,0.2,1,0.1,1.5c0,0.5-0.1,1.1-0.2,1.6c-0.1,0.5-0.3,0.9-0.6,1.1l-34.9,0.1C500.2,98.1,498.1,97.4,496.6,96.1z M527.2,78.7
		c-0.2-0.7-0.4-1.6-0.5-2.6c-0.1-1-0.2-2-0.3-3.1c-0.1-1.1-0.1-2.2-0.1-3.4V29.7c0-0.5-0.1-1-0.4-1.3c-0.2-0.3-0.5-0.6-0.8-0.9
		l-4.5-3.6c0.1-0.7,0.4-1.3,0.7-2c0.4-0.7,0.8-1,1.1-1c0.5,0,1.2,0.1,2.2,0.3c1,0.2,2,0.4,3,0.7c1.1,0.2,2.1,0.5,3,0.8
		c1,0.3,1.7,0.6,2.3,0.8c0.4,0.2,0.7,0.5,0.9,0.7s0.2,0.6,0.2,1c0,0.4,0,1.1-0.1,2.1c-0.1,1-0.1,1.8-0.1,2.4l-0.1,20.7h0.7
		c0.8,0,1.5-0.1,2.3-0.3c0.8-0.2,1.5-0.4,2.2-0.6c0.7-0.2,1.4-0.4,1.9-0.6c0.6-0.2,1.1-0.3,1.5-0.3c0.5,0,1,0,1.6,0.1
		c0.6,0.1,1.2,0.1,1.8,0.2c0.6,0.1,1.1,0.2,1.6,0.4c0.5,0.1,0.8,0.3,1,0.5c0.2,0.2,0.4,0.5,0.5,0.9c0.1,0.4,0.1,0.9,0.1,1.5
		c0,0.5,0,1.1-0.1,1.6c-0.1,0.5-0.2,1-0.5,1.3h-14.8V67c0,1.4-0.1,2.7-0.3,4.1c-0.2,1.4-0.4,2.7-0.7,3.9c-0.3,1.2-0.6,2.3-0.9,3.2
		c-0.3,0.9-0.7,1.6-1,2h-3C527.6,80,527.4,79.4,527.2,78.7z"/>
	<path class="st59" d="M562.7,80.5c-0.3,0-0.9-0.1-1.6-0.4c-0.7-0.3-1.5-0.6-2.4-1c-0.8-0.4-1.7-0.8-2.5-1.2c-0.8-0.4-1.5-0.8-2-1.1
		c0-0.8,0.1-1.6,0.4-2.3c0.3-0.7,0.6-1,0.9-1c0.2,0,0.5,0,1,0.1c0.5,0.1,1.1,0.1,1.9,0.2s1.5,0.2,2.4,0.2c0.8,0.1,1.7,0.1,2.5,0.2
		c0.6,0.1,1.5,0.1,2.7,0.1c1.2,0,2.3,0,3.2,0c2.7-0.1,5.9-0.2,9.5-0.5c3.6-0.2,7.3-0.6,11-1c3.8-0.4,7.5-0.9,11.2-1.4
		c3.7-0.5,6.9-1.2,9.8-1.9V29.7c0-0.5-0.1-1-0.4-1.3c-0.2-0.3-0.5-0.6-0.8-0.9l-4.5-3.6c0.1-0.7,0.4-1.4,0.7-2
		c0.4-0.6,0.8-0.9,1.1-0.9c0.5,0,1.2,0.1,2.2,0.3c1,0.2,2,0.4,3,0.7c1.1,0.2,2.1,0.5,3,0.8c1,0.3,1.7,0.6,2.3,0.8
		c0.4,0.2,0.7,0.5,0.9,0.7s0.2,0.6,0.2,1c0,0.4,0,1.1-0.1,2.1c-0.1,1-0.1,1.8-0.1,2.4l-0.2,56.7c0,1.4-0.1,2.9-0.3,4.3
		c-0.2,1.4-0.4,2.8-0.7,4.1c-0.3,1.3-0.6,2.4-0.9,3.3c-0.3,1-0.7,1.7-1,2.1h-3c-0.2-0.4-0.4-1-0.6-1.8c-0.2-0.8-0.4-1.7-0.5-2.7
		c-0.1-1-0.2-2.1-0.3-3.2c-0.1-1.1-0.1-2.3-0.1-3.4v-15c-2.8,0.7-5.9,1.3-9.4,1.9c-3.5,0.6-7,1.1-10.6,1.6
		c-3.6,0.5-7.1,0.9-10.6,1.2c-3.4,0.3-6.5,0.6-9.3,0.7c-1.8,0.1-3.4,0.3-4.8,0.6C564.6,80.4,563.4,80.5,562.7,80.5z M581,63.2
		c-2.8,0-5.4-0.4-7.7-1.2c-2.3-0.8-4.3-2-5.9-3.4c-1.6-1.4-2.9-3.2-3.8-5.2c-0.9-2-1.4-4.2-1.4-6.6c0-2.4,0.5-4.6,1.4-6.6
		c0.9-2,2.2-3.7,3.8-5.2c1.6-1.4,3.6-2.6,5.9-3.4s4.9-1.2,7.7-1.2c2.8,0,5.4,0.4,7.7,1.2c2.3,0.8,4.3,2,5.9,3.4
		c1.6,1.4,2.9,3.2,3.8,5.2c0.9,2,1.4,4.2,1.4,6.6c0,2.4-0.5,4.6-1.4,6.6c-0.9,2-2.2,3.7-3.8,5.2c-1.6,1.4-3.6,2.6-5.9,3.4
		C586.5,62.8,583.9,63.2,581,63.2z M581,57.8c3.4,0,6.3-1,8.4-3c2.2-2,3.3-4.6,3.3-7.9c0-1.6-0.3-3.1-0.9-4.5
		c-0.6-1.3-1.4-2.5-2.4-3.4c-1-1-2.3-1.7-3.7-2.2c-1.4-0.5-3-0.8-4.7-0.8c-1.7,0-3.3,0.3-4.7,0.8c-1.4,0.5-2.7,1.3-3.7,2.2
		c-1,1-1.9,2.1-2.5,3.4c-0.6,1.3-0.9,2.8-0.9,4.5s0.3,3.1,0.9,4.5c0.6,1.3,1.4,2.5,2.5,3.4c1,1,2.3,1.7,3.7,2.2
		C577.8,57.5,579.3,57.8,581,57.8z"/>
	<path class="st59" d="M655.2,77.3c0.2-0.7,0.3-1.4,0.5-2.4c0.2-0.9,0.3-1.9,0.4-2.8c0.1-1,0.1-1.9,0.2-2.8c0.1-0.9,0.1-1.7,0.1-2.3
		v-2.4c-1.4,0.1-2.7,0.2-3.9,0.3c-1.3,0.1-2.4,0.2-3.5,0.2c-1.7,0.1-3.3,0.3-4.8,0.6c-1.5,0.3-2.6,0.4-3.4,0.4
		c-0.3,0-0.9-0.1-1.6-0.4c-0.7-0.3-1.5-0.6-2.3-1c-0.8-0.4-1.6-0.8-2.4-1.2c-0.8-0.4-1.4-0.8-1.9-1.1c0-0.8,0.1-1.5,0.4-2.1
		c0.3-0.7,0.6-1,1-1c0.1,0,0.4,0,0.9,0.1c0.5,0.1,1.1,0.1,1.8,0.2c0.7,0.1,1.5,0.2,2.3,0.2c0.8,0.1,1.7,0.1,2.5,0.1
		c0.7,0.1,1.5,0.1,2.7,0.1c1.1,0,2.2,0,3.2,0c2.3-0.1,5-0.2,8.2-0.4c3.1-0.2,6.4-0.5,9.6-0.8c3.3-0.3,6.5-0.7,9.6-1.1
		c3.1-0.4,5.9-0.9,8.2-1.4c0.3,0.3,0.5,0.9,0.7,1.8c0.2,1,0.3,1.8,0.3,2.5c-2.6,0.6-5.6,1.2-9.2,1.7c-3.6,0.5-7.2,1-10.9,1.5v3
		c0,0.9-0.1,1.9-0.3,3c-0.2,1.1-0.5,2.1-0.9,3.2c-0.4,1-0.9,2-1.5,2.9c-0.6,0.9-1.3,1.6-2,2.1L655.2,77.3z M660.6,53.7
		c-2.6,0-5-0.4-7.2-1.1c-2.2-0.7-4-1.7-5.5-3c-1.5-1.3-2.7-2.7-3.6-4.5c-0.8-1.7-1.3-3.6-1.3-5.7c0-2.1,0.4-4,1.3-5.7
		c0.8-1.7,2-3.3,3.6-4.5c1.5-1.3,3.4-2.2,5.5-3c2.2-0.7,4.6-1.1,7.2-1.1s5,0.4,7.2,1.1c2.2,0.7,4,1.7,5.5,3c1.5,1.3,2.7,2.8,3.6,4.5
		c0.8,1.8,1.3,3.7,1.3,5.7c0,2.1-0.4,4-1.3,5.7c-0.8,1.7-2,3.2-3.6,4.5c-1.5,1.3-3.4,2.2-5.5,3C665.6,53.3,663.2,53.7,660.6,53.7z
		 M660.6,48.3c3.1,0,5.7-0.8,7.6-2.4c2-1.6,3-3.7,3-6.5c0-2.8-1-5-3-6.6c-2-1.6-4.5-2.4-7.6-2.4s-5.7,0.8-7.6,2.4
		c-2,1.6-3,3.8-3,6.6c0,2.7,1,4.9,3,6.5C654.9,47.5,657.5,48.3,660.6,48.3z M666.3,98.1c-2.9,0-5.1-0.7-6.5-2
		c-1.4-1.3-2.2-3.1-2.2-5.4v-5.2c0-0.4,0-0.7-0.1-0.9c-0.1-0.2-0.2-0.3-0.5-0.4l-3-1.8c0-0.4,0.1-1,0.5-1.8c0.3-0.7,0.6-1.1,1-1.1
		c1.1,0,2.5,0,4,0.1c1.5,0.1,2.7,0.2,3.5,0.3c0.7,0.1,1.2,0.3,1.8,0.5c0.5,0.2,0.8,0.7,0.8,1.4c0,0.2,0,0.6,0,1.2c0,0.6,0,1,0,1.4
		v5.9c0,1,0.3,1.7,0.8,2.1c0.5,0.4,1.4,0.6,2.7,0.6h17c0.8,0,1.7-0.1,2.5-0.2s1.7-0.3,2.4-0.5c0.8-0.2,1.5-0.4,2.1-0.5
		c0.6-0.2,1.2-0.2,1.6-0.2c0.6,0,1.3,0,2,0.1c0.7,0.1,1.4,0.1,2.1,0.2c0.7,0.1,1.3,0.2,1.8,0.4c0.5,0.2,0.9,0.4,1,0.6
		c0.2,0.2,0.3,0.6,0.4,1c0.1,0.5,0.2,1,0.1,1.5c0,0.5-0.1,1.1-0.2,1.6c-0.1,0.5-0.3,0.9-0.6,1.1L666.3,98.1z M678,74.9
		c-0.3,0-0.7-0.1-1.3-0.3c-0.6-0.2-1.2-0.5-1.8-0.8c-0.7-0.3-1.3-0.7-1.9-1c-0.6-0.4-1.1-0.7-1.5-0.9c0-0.8,0.1-1.4,0.3-1.9
		c0.2-0.5,0.5-0.7,0.8-0.7c0.2,0,0.6,0,1.3,0.1c0.7,0.1,1.6,0.1,2.6,0.1c1,0,2.1,0.1,3.2,0.1c1.1,0,2.2,0,3.1,0l7.5-0.2V29.7
		c0-0.5-0.1-1-0.4-1.3c-0.2-0.3-0.5-0.6-0.8-0.9l-4.5-3.6c0.1-0.7,0.4-1.3,0.7-2c0.4-0.7,0.8-1,1.1-1c0.5,0,1.2,0.1,2.2,0.3
		c1,0.2,1.9,0.4,3,0.7c1,0.2,2,0.5,3,0.8c1,0.3,1.7,0.6,2.3,0.8c0.4,0.2,0.7,0.5,0.9,0.7s0.2,0.6,0.2,1c0,0.4,0,1.1-0.1,2.1
		c-0.1,1-0.1,1.8-0.1,2.4l-0.2,40.4c0,1.4-0.1,2.8-0.3,4.2c-0.2,1.4-0.4,2.7-0.7,4c-0.3,1.2-0.6,2.3-0.9,3.2c-0.3,0.9-0.7,1.6-1,2
		H692c-0.4-0.7-0.7-2-1-3.8c-0.3-1.8-0.5-3.8-0.5-5.9l-7.5,0.2c-0.5,0-1.4,0.1-2.5,0.4C679.3,74.8,678.5,74.9,678,74.9z"/>
</g>
</svg>
